<?xml version="1.0" encoding="utf-8"?>
<!DOCTYPE svg PUBLIC "-//W3C//DTD SVG 1.1//EN" "http://www.w3.org/Graphics/SVG/1.1/DTD/svg11.dtd">
<svg version="1.1" id="Layer_1" xmlns="http://www.w3.org/2000/svg" xmlns:xlink="http://www.w3.org/1999/xlink" x="0px" y="0px"
	 viewBox="828 26.3 264 1868" enable-background="new 828 26.3 264 1868" xml:space="preserve">
<g>
	<rect x="882.5" y="374.3" fill="#EEC784" stroke="#7E7D7E" width="152.8" height="73"/>
	<path stroke="#000000" stroke-width="9.375000e-002" d="M958.4,59.1c2.1,0,4.3,0,6.5,0c0,10.2,0,20.4,0,30.7c4.6,0,9.3,0,14,0
		c0,2.6,0,5.1,0,7.6c-4.7,0-9.3,0-14,0c0,10.1,0,20.3,0,30.4c-2.9,0.1-1.8,3.4-2.3,5.3c-0.7,3.3,0.2,6.6,0.7,9.8
		c0,0.5-0.1,1.5-0.1,2c-0.8-1.6-1.6-3.1-2.4-4.7c1.1-3.9,0-7.9-0.3-11.8c-0.5-0.1-1.6-0.3-2.1-0.5c0-10.2,0-20.3,0-30.5
		c-4.6,0-9.3,0-13.9,0c0-2.5,0-5.1,0-7.6c4.6,0,9.3,0,13.9,0C958.4,79.6,958.4,69.3,958.4,59.1z"/>
	<path fill="#3B3221" stroke="#3B3221" stroke-width="9.375000e-002" d="M939.2,215c7.9-24.7,15.5-49.6,21.5-74.8
		c0.8,1.6,1.6,3.2,2.4,4.7c0-0.5,0.1-1.5,0.1-2c7.4,31.3,16.4,62.2,25.9,93c8.3,27,17,54,26.3,80.6c5.5,15.6,11,31.3,18,46.3
		c-4.8,1-9.6,0.6-14.4,0.6c-44.7,0-89.3,0-134,0c6.9-13.8,12.2-28.3,17.7-42.7C915.7,285.8,927.8,250.5,939.2,215z"/>
	<path stroke="#000000" stroke-width="9.375000e-002" d="M1043.2,363.8c-3-0.5-6.2-0.2-9.2-0.2l0.7-1.3l-0.7,0.4l-0.5,0.2
		c-4.8,1-9.6,0.6-14.4,0.6c-44.7,0-89.3,0-134,0c-0.4,0-1.1,0.1-1.5,0.1c0,0,0-0.1,0-0.1c-0.1,0-0.2,0-0.2,0c0,0,0,0.1,0,0.1
		c-2.9,0-6-0.4-8.8,0.7c53.1-0.2,106.3,0,159.5-0.1c3.4,0,6.8-0.3,10.1,0.5c1.3,2.1,1.5,4.6,2.1,6.9
		C1046.3,368.8,1046.5,364.9,1043.2,363.8z"/>
	<path fill="#2D2D2D" stroke="#2D2D2D" stroke-width="9.375000e-002" d="M1034.3,302.5c0.2,0,0.5,0,0.6,0L1034.3,302.5z"/>
	<path fill="#776443" stroke="#776443" stroke-width="9.375000e-002" d="M874.3,364.3h0.2c53.1-0.2,106.3,0,159.5-0.1
		c3.4,0,6.8-0.3,10.1,0.5c1.3,2.1,1.5,4.5,2.1,6.9c-0.8,0.7-1.6,1.5-2.5,2c-15.2-1.2-30.4-0.4-45.6-0.7c-27,0-54.1,0-81.1,0
		c-13.9,0.1-27.8-0.4-41.6,0.6c-0.9-0.6-1.7-1.3-2.5-1.9l0.5-0.7c1-1.1,1-2.9,0-4.1l-0.5-0.7C873.2,365.8,874,364.8,874.3,364.3z"/>
	<path fill="#352D1F" stroke="#352D1F" stroke-width="9.375000e-002" d="M873.3,367c1.1,1.1,1.1,2.9,0,4.1
		C872.4,369.7,872.4,368.3,873.3,367z"/>
	<path fill="#412C0E" stroke="#412C0E" stroke-width="9.375000e-002" d="M875.4,373.6c13.8-1.1,27.7-0.5,41.6-0.6
		c27,0,54.1,0,81.1,0c15.2,0.2,30.4-0.6,45.6,0.7c-3.2,0.6-6.5,0.4-9.7,0.4h-1.2c-48.8,0-97.6,0-146.4,0c-0.3,0-0.9,0-1.2,0
		C881.9,374,878.6,374.3,875.4,373.6z"/>
	<path fill="#8A7A62" stroke="#8A7A62" stroke-width="9.375000e-002" d="M1032.8,374.1h1.2"/>
	<path fill="#3B3221" stroke="#3B3221" stroke-width="9.375000e-002" d="M1075.8,525c-0.4-0.3-0.7-0.5-0.9-0.9c0,0.1,0,0.2,0,0.4
		c-14.6-25.7-28.9-51.6-43.3-77.4l-0.2,0c-7.8,0.9-15.6,0.2-23.4,0.3c-19-0.1-38,0.2-57-0.1l0-0.7c-0.5,0.1-1.1,0.1-1.6,0
		c-0.1,0.1-0.1,0.2-0.2,0.3c-4.4,0.9-8.8,0.4-13.3,0.5c-16.2,0.1-32.5-0.1-48.7,0.1h-1c-14.1,26.5-29.2,52.6-43.1,79.2
		c0.2,1.9,2.2,1.6,3.6,1.8c74.7,0,149.4,0,224.1,0c1.8-0.1,3.6-0.7,5.3-1.2C1076.1,526.6,1076,525.8,1075.8,525
		C1075.9,525,1075.9,525,1075.8,525z"/>
	<path fill="#EEC784" stroke="#EEC784" stroke-width="9.375000e-002" d="M1076.3,572c0-14.9,0-29.8,0-44.7c-1.8,0.5-3.5,1.1-5.3,1.2
		c-74.7,0-149.4,0-224.1,0c-1.5-0.1-3.4,0.2-3.6-1.8c0,0,0-0.1,0-0.1c-0.1,0-0.1,0.1-0.3,0.1c-0.2,0-0.4,0.1-0.7,0.2
		c0.1,2.4,0.2,4.8,0.4,7.2c-0.2,14.1,0.3,28.3-0.2,42.4c6.5,0.6,13,0.1,19.5,0.2c6-0.2,12,0.7,18,0.6c5,0.1,10-0.9,15-0.4
		c8.6,0.8,17.3,0.1,26,0c10.7,1.1,21.4-0.7,32.1,0.3c7.6,0.4,15.2-0.5,22.8-0.3c9.7,1.3,19.5-0.9,29.2,0.3c5.3,0.2,10.7,0.1,16-0.3
		c5.3-0.4,10.6,0.6,15.9,0.4c7,0.3,14-0.9,21-0.6c6.5-0.1,13,0.5,19.5-0.3C1075.7,575.5,1076.6,573.5,1076.3,572z"/>
	<path fill="#EEC784" stroke="#EEC784" stroke-width="9.375000e-002" d="M833.3,576.8c2.4-1.9,6.3-0.5,9.2-0.4
		c6.5,0.6,13,0.1,19.5,0.2c6-0.2,12,0.7,18,0.6c5,0.1,10-0.9,15-0.4c8.6,0.8,17.3,0.1,26,0c10.7,1.1,21.4-0.7,32.1,0.3
		c7.6,0.4,15.2-0.5,22.8-0.3c9.7,1.3,19.5-0.9,29.2,0.3c5.3,0.2,10.7,0.1,16-0.3c5.3-0.4,10.6,0.6,15.9,0.5c7,0.3,14-0.9,21-0.6
		c6.5-0.1,13,0.5,19.5-0.3c3.2-0.6,6.4-0.5,9.6-0.3c0.2,84.3-0.1,168.6,0.1,252.8c-0.3,1.2,0.5,3.1-0.8,3.8l-0.4-0.3
		c-2.9-0.9-5.9-0.4-8.8-0.5c-77.7,0-155.3,0-233,0c-3.3,0-6.7,0-10,0c0-81,0-162,0-243c-0.3-4,0.6-8-0.3-11.9L833.3,576.8
		 M868,612.2c-0.1,11.3,0,22.7,0,34c-10.6,0-21.2,0-31.9,0c-0.4,11.9-0.4,23.8,0,35.8c10.6,0,21.3,0,31.9,0c0,15.7,0,31.5,0,47.2
		c-10.6,0-21.2-0.2-31.8,0c-0.5,11.9-0.3,23.8,0,35.6c10.6,0,21.3-0.2,31.9,0.1c0,10.8,0,21.7,0,32.5c61.1,0,122.2,0,183.3,0
		c0.1-10.8,0-21.7,0-32.5c10.8-0.4,21.6,0,32.4-0.1c0-11.8,0-23.7,0-35.5c-10.8-0.3-21.6,0-32.3-0.1c0-15.7,0-31.5,0-47.2
		c10.8-0.3,21.6,0.2,32.4-0.2c0-11.8,0-23.7,0-35.5c-10.8-0.1-21.6,0.1-32.4-0.2c0-11.3,0.1-22.7-0.1-34
		C990.2,612.1,929.1,611.9,868,612.2z"/>
	<path fill="#776444" stroke="#776444" stroke-width="9.375000e-002" d="M833.3,576.8l0.4,0.3c0.9,3.9,0,7.9,0.3,11.9
		c0.1,81,0,162,0,243c3.3,0,6.7,0,10,0l0.1,1.1c0.3,107,0,214,0.1,320.9c0,235.4,0,470.8,0,706.1c76.9,0.3,153.9,0,230.8,0.2
		c0.3,0.3,0.8,0.8,1.1,1.1c-77.6,0-155.3,0-232.9,0c-0.2-108.5,0-217-0.1-325.4c0-234.3,0-468.6,0-702.9c-3.5,0-6.9,0-10.4,0
		c0.1-85.5-0.1-170.9,0.1-256.4L833.3,576.8z"/>
	<path fill="#876A3A" stroke="#876A3A" stroke-width="9.375000e-002" d="M868,612.2c61.1-0.3,122.1,0,183.2-0.1
		c0.2,11.3,0,22.7,0.1,34c0,12,0,23.9,0,35.9c0,15.7,0,31.5,0,47.2c0,11.9,0,23.8,0,35.8c0,10.8,0,21.7,0,32.5
		c-61.1-0.1-122.2,0-183.3,0c0-10.8,0-21.6,0-32.5c0-11.9,0-23.9,0-35.8c0-15.7,0-31.5,0-47.2c0-11.9,0-23.8,0-35.7
		C868,634.8,868,623.5,868,612.2 M869.2,613.2c0,60.9-0.1,121.8,0,182.7c60.2,0.2,120.5,0.1,180.7,0c0.2-60.9,0.1-121.9,0-182.8
		C989.6,613.2,929.4,613,869.2,613.2z"/>
	<path fill="#B49665" stroke="#B49665" stroke-width="9.375000e-002" d="M869.2,613.2c60.2-0.2,120.5,0,180.7-0.1
		c0.2,60.9,0.2,121.9,0,182.8c-60.2,0.1-120.5,0.2-180.7,0C869.1,735,869.1,674.1,869.2,613.2 M994.9,621.3
		c12.7,5.7,23.6,14.7,32.5,25.3c6.4,7.4,11.8,15.9,14.3,25.5c0.3-16.6,0.1-33.3,0.1-50C1026.1,621.6,1010.5,621.7,994.9,621.3
		 M878,621.9c-0.6,16.3-0.8,32.7-0.6,49c2.3-9.5,8.6-17.4,14.8-24.7c9.4-10.4,20.6-19.6,34-24.1c-6.4-0.6-12.9-0.2-19.3-0.3
		C897.3,621.9,887.7,621.6,878,621.9 M877.3,738.9c-0.5,5.3-0.4,10.7-0.4,16c0.2,11.2-0.4,22.4,0.3,33.6c15.6-0.3,31.3,1,46.9,0.2
		c-11.2-4-20.4-11.9-28.6-20.3C887.5,760,880.3,750.3,877.3,738.9 M1031.1,762c-10.2,12-22.7,23.1-38.1,27.7
		c16.5-0.2,33.1,0,49.6-0.1c0-15.6,1-31.2,0.4-46.8C1039.8,749.7,1036,756.2,1031.1,762z"/>
	<path fill="#776443" stroke="#776443" stroke-width="9.375000e-002" d="M994.9,621.3c15.6,0.4,31.2,0.3,46.8,0.8
		c0,16.7,0.2,33.3-0.1,50c-2.5-9.6-7.9-18.1-14.3-25.5C1018.5,636,1007.5,627,994.9,621.3z"/>
	<path fill="#776443" stroke="#776443" stroke-width="9.375000e-002" d="M878,621.9c9.6-0.3,19.2,0,28.9-0.1
		c6.4,0.1,12.9-0.3,19.3,0.3c-13.4,4.5-24.6,13.8-34,24.1c-6.3,7.3-12.5,15.1-14.8,24.7C877.3,654.6,877.5,638.3,878,621.9z"/>
	<path fill="#D7B578" stroke="#D7B578" stroke-width="9.375000e-002" d="M836.1,646.1c10.6,0.1,21.2,0.1,31.9,0
		c0,11.9,0,23.8,0,35.7c-10.6-0.1-21.3,0-31.9,0C835.8,669.9,835.7,658,836.1,646.1z"/>
	<path fill="#D7B578" stroke="#D7B578" stroke-width="9.375000e-002" d="M1051.3,646c10.8,0.3,21.6,0.1,32.4,0.2
		c0,11.8,0,23.7,0,35.5c-10.8,0.4-21.6-0.1-32.4,0.2C1051.3,670,1051.3,658,1051.3,646z"/>
	<path fill="#D7B578" stroke="#D7B578" stroke-width="9.375000e-002" d="M836.2,729.1c10.6-0.2,21.2-0.1,31.8,0
		c0,11.9,0,23.9,0,35.8c-10.6-0.3-21.3-0.1-31.9-0.1C835.9,752.9,835.7,741,836.2,729.1z"/>
	<path fill="#D7B578" stroke="#D7B578" stroke-width="9.375000e-002" d="M1051.3,729.1c10.8,0.1,21.6-0.2,32.3,0.1
		c0,11.8,0,23.7,0,35.5c-10.8,0.1-21.6-0.3-32.4,0.1C1051.3,752.9,1051.3,741,1051.3,729.1z"/>
	<path fill="#776443" stroke="#776443" stroke-width="9.375000e-002" d="M877.3,738.9c3,11.4,10.3,21.1,18.2,29.5
		c8.1,8.4,17.4,16.3,28.6,20.3c-15.6,0.8-31.3-0.5-46.9-0.2c-0.6-11.2-0.1-22.4-0.3-33.6C876.9,749.6,876.8,744.3,877.3,738.9z"/>
	<path fill="#776443" stroke="#776443" stroke-width="9.375000e-002" d="M1031.1,762c5-5.7,8.8-12.3,11.9-19.2
		c0.6,15.6-0.4,31.2-0.4,46.8c-16.5,0.1-33.1-0.1-49.6,0.1C1008.4,785,1020.8,774,1031.1,762z"/>
	<path fill="#715B39" stroke="#715B39" stroke-width="9.375000e-002" d="M844,832c77.7,0,155.3,0,233,0c2.9,0.1,6-0.5,8.8,0.5
		l0.4,0.3c-3.3,0.7-6.7,0.3-10.1,0.4c0,342.8,0,685.6,0,1028.3c-0.3-0.3-0.8-0.8-1.1-1.1c-0.1-342.4,0-684.8-0.1-1027.2
		c-77,0-153.9,0-230.9,0L844,832z"/>
	<path fill="#EEC784" stroke="#EEC784" stroke-width="9.375000e-002" d="M844.1,833.1c77,0.1,153.9,0,230.9,0
		c0.1,342.4,0,684.8,0.1,1027.2c-76.9-0.2-153.9,0.1-230.8-0.2c0-235.4,0-470.8,0-706.1C844.1,1047.1,844.4,940.1,844.1,833.1
		 M864.3,852.9c0.2,75.8,0,151.5,0.1,227.3c-5.7,0-11.4-0.1-17.2,0.1c-0.1,11.8-0.1,23.7,0,35.6c5.7,0.2,11.5,0.1,17.2,0
		c0,72.1,0,144.1,0,216.2c-5.7,0-11.5-0.2-17.2,0.1c-0.1,11.8-0.1,23.7,0,35.5c5.7,0.1,11.4-0.1,17.2,0.1c0,72,0,144.1,0,216.1
		c-5.7-0.2-11.5-0.3-17.2,0.1c-0.1,11.8-0.3,23.7,0.1,35.5c5.7,0,11.4,0.4,17.1-0.4c-0.1,74.6,0.1,149.1-0.1,223.7
		c2.5,0,5.1,0.1,7.7,0.1c0.2-74.6,0-149.2,0.1-223.8c7.6,0.1,15.3,0.2,22.9,0c0.1,74.6-0.2,149.2,0.1,223.8c2.5,0,5,0,7.6-0.1
		c0-74.6,0-149.2,0-223.7c7.6,0.2,15.3,0.1,22.9,0.1c0.1,74.6-0.1,149.2,0.1,223.8c2.5-0.1,5-0.1,7.5-0.1c0-74.6,0-149.2,0-223.7
		c7.6,0.1,15.3,0.2,22.9,0c0,74.6,0,149.2,0,223.8c2.5,0,5.1,0,7.6-0.1c0-74.6,0-149.2,0-223.8c7.6,0.2,15.3,0.1,22.9,0.1
		c0,74.6,0,149.1,0,223.7c2.5,0,5.1,0.1,7.6,0.1c0.1-74.6,0-149.3,0-223.9c7.6,0.4,15.3,0.2,22.9,0c0,74.6,0,149.2,0,223.8
		c2.5,0,5.1,0,7.6,0c0.1-74.6,0-149.3,0.1-223.9c7.6,0.4,15.3,0.2,22.9,0.1c0,74.6-0.1,149.2,0,223.8c2.5,0,5.1,0,7.6,0
		c0-74.6,0-149.2,0-223.8c5.5,0.2,11,0.1,16.5-0.1c0.3-11.7,0.2-23.4,0-35.1c-5.5-0.3-11-0.2-16.5-0.1c0-72,0-144,0-216
		c5.5-0.2,10.9-0.1,16.4-0.2c0.5-11.9,0.2-23.8,0.1-35.6c-5.5-0.2-11-0.2-16.5-0.1c0-72,0-144.1,0-216.1c5.5-0.1,11,0,16.4-0.1
		c0.3-11.9,0.3-23.8,0-35.6c-5.5-0.1-11,0-16.5-0.2c0-75.8,0.1-151.6,0-227.4c-2.5,0-5.1,0-7.6,0c0,75.8,0,151.6,0,227.4
		c-7.6,0.2-15.3,0.1-22.9,0c0-75.8,0-151.6,0-227.4c-2.6-0.1-5.2,0-7.7,0c0,75.8,0,151.6,0,227.3c-7.6,0.2-15.3,0.1-22.9-0.1
		c0-75.8,0-151.5,0-227.3c-2.5,0-5.1,0-7.6,0c0,75.8,0,151.6,0,227.4c-7.6,0.2-15.3,0.1-22.9,0c0-75.8,0-151.5,0-227.3
		c-2.6-0.1-5.1-0.1-7.6,0c0,75.8,0,151.6,0,227.3c-7.7,0.1-15.3,0.1-23,0c0-75.8,0-151.6,0-227.4c-2.5,0-5,0-7.6,0
		c-0.1,75.8,0,151.5,0,227.3c-7.6,0.2-15.3,0.2-22.9,0.1c-0.1-75.8,0.2-151.7-0.1-227.5c-2.5,0-5,0-7.5,0
		c-0.3,75.8,0,151.6-0.1,227.4c-7.6,0.2-15.3,0.2-22.9,0.1c0-75.8,0-151.6,0-227.4C869.4,852.7,866.9,852.7,864.3,852.9z"/>
	<path fill="#77643F" stroke="#77643F" stroke-width="9.375000e-002" d="M864.3,852.9c2.5-0.2,5.1-0.2,7.7-0.2
		c0.1,75.8,0,151.6,0,227.4c0,11.9,0,23.9,0,35.8c0,72,0,144.1,0,216.1c0,11.9,0,23.9,0,35.8c0,72,0,144.1,0,216.1
		c0,11.7,0,23.5,0,35.2c0,74.6,0.1,149.2-0.1,223.8c-2.6,0-5.1-0.1-7.7-0.1c0.2-74.5,0-149.1,0.1-223.7c0-11.8,0-23.5,0-35.3
		c0-72,0-144.1,0-216.1c0-11.9,0-23.9,0-35.8c0-72.1,0-144.1,0-216.2c0-11.9,0-23.8,0-35.7C864.3,1004.4,864.5,928.6,864.3,852.9z"
		/>
	<path fill="#786442" stroke="#786442" stroke-width="9.375000e-002" d="M895,852.7c2.5,0,5,0,7.5,0c0.3,75.8,0.1,151.7,0.1,227.5
		c0,11.9,0,23.8,0,35.8c0,72,0,144,0,216c0,12,0,23.9,0,35.9c0,72.1,0,144.1,0,216.1c0,11.7,0,23.4,0,35.2c0,74.6,0,149.2,0,223.7
		c-2.5,0-5,0.1-7.6,0.1c-0.3-74.6,0-149.2-0.1-223.8c0-11.7,0-23.4,0-35.2c0-72,0-144.1,0-216.1c0-11.9,0-23.8,0-35.8
		c0-72,0-144.1,0-216.1c0-12,0-23.9,0-35.9C895,1004.3,894.8,928.5,895,852.7z"/>
	<path fill="#756541" stroke="#756541" stroke-width="9.375000e-002" d="M925.6,852.7c2.5,0,5,0,7.6,0c0,75.8,0,151.6,0,227.4
		c0,12,0,23.9,0,35.9c0,72,0,144,0,216c0,12,0,23.9,0,35.9c0,72,0,144,0,216c0,11.8,0,23.5,0,35.3c0,74.6,0,149.2,0,223.7
		c-2.5,0-5,0.1-7.5,0.1c-0.2-74.6,0-149.2-0.1-223.8c0-11.8,0-23.5,0-35.3c0-72,0-144,0-216c0-12,0-23.9,0-35.9c0-72,0-144,0-216
		c0-12,0-24,0-36C925.6,1004.2,925.5,928.5,925.6,852.7z"/>
	<path fill="#776441" stroke="#776441" stroke-width="9.375000e-002" d="M956.1,852.8c2.5,0,5.1,0,7.6,0c-0.1,75.8,0,151.5,0,227.3
		c0,11.9,0,23.9,0,35.8c0,72.1,0,144.1,0,216.2c0,11.9,0,23.8,0,35.7c0,72.1,0,144.1,0,216.2c0,11.7,0,23.4,0,35.1
		c0,74.6,0,149.2,0,223.8c-2.6,0-5.1,0-7.6,0.1c0-74.6,0-149.2,0-223.8c0-11.7,0-23.4,0-35.2c0-72,0-144.1,0-216.1
		c0-11.9,0-23.9,0-35.8c0-72,0-144,0-216c0-11.9,0-23.9,0-35.8C956.2,1004.3,956.1,928.5,956.1,852.8z"/>
	<path fill="#766543" stroke="#766543" stroke-width="9.375000e-002" d="M986.7,852.7c2.5,0,5.1,0,7.6,0c0,75.8,0,151.5,0,227.3
		c0,12,0,23.9,0,35.9c0,72,0,144.1,0,216.1c0,11.9,0,23.8,0,35.6c0,72.1,0,144.2,0,216.2c0,11.7,0,23.4,0,35.1
		c0,74.6,0,149.3,0,223.9c-2.5,0-5.1-0.1-7.6-0.1c0-74.6,0-149.1,0-223.7c0-11.8,0-23.5,0-35.2c0-72,0-144,0-216c0-12,0-24,0-36
		c0-72,0-143.9,0-215.9c0-12,0-24,0-36C986.7,1004.3,986.7,928.5,986.7,852.7z"/>
	<path fill="#786342" stroke="#786342" stroke-width="9.375000e-002" d="M1017.2,852.8c2.6-0.1,5.1-0.1,7.7,0
		c0,75.8,0,151.6,0,227.4c0,11.9,0,23.9,0,35.8c0,72,0,144.1,0,216.1c0,11.9,0,23.9,0,35.8c0,72,0,144,0,216.1c0,11.7,0,23.4,0,35.1
		c-0.1,74.6,0.1,149.3-0.1,223.9c-2.5,0-5.1,0-7.6,0c0-74.6,0-149.2,0-223.8c0-11.7,0-23.4,0-35.1c0-72,0-144.1,0-216.2
		c0-11.9,0-23.9,0-35.8c0-72,0-144.1,0-216.1c0-11.9,0-23.9,0-35.8C1017.2,1004.3,1017.3,928.5,1017.2,852.8z"/>
	<path fill="#786541" stroke="#786541" stroke-width="9.375000e-002" d="M1047.8,852.7c2.5,0,5.1,0,7.6,0c0.1,75.8,0,151.6,0,227.4
		c0,11.9,0,23.9,0,35.9c0,72,0,144.1,0,216.1c0,12,0,23.9,0,35.9c0,72,0,144,0,216c0,11.7,0,23.5,0,35.3c0,74.6,0,149.2,0,223.8
		c-2.5,0-5.1-0.1-7.6,0c-0.1-74.6,0-149.2,0-223.8c0-11.7,0-23.4,0-35.2c0-72,0-144.1,0-216.1c0-11.9,0-23.9,0-35.8
		c0-72,0-144.1,0-216.1c0-11.9,0-23.9,0-35.8C1047.8,1004.3,1047.8,928.5,1047.8,852.7z"/>
	<path fill="#D7B578" stroke="#D7B578" stroke-width="9.375000e-002" d="M847.2,1080.3c5.7-0.1,11.4-0.1,17.2-0.1
		c0,11.9,0,23.8,0,35.7c-5.7,0-11.5,0.1-17.2,0C847.2,1103.9,847.2,1092.1,847.2,1080.3z"/>
	<path fill="#D7B578" stroke="#D7B578" stroke-width="9.375000e-002" d="M872,1080.1c7.6,0.1,15.3,0.2,22.9-0.1c0,12,0,23.9,0,35.9
		c-7.6-0.2-15.3-0.2-22.9-0.1C872,1104,872,1092,872,1080.1z"/>
	<path fill="#D7B578" stroke="#D7B578" stroke-width="9.375000e-002" d="M902.6,1080.2c7.6,0.1,15.3,0.1,22.9-0.1c0,12,0,24,0,36
		c-7.6-0.2-15.3-0.1-22.9-0.1C902.6,1104,902.6,1092.1,902.6,1080.2z"/>
	<path fill="#D7B578" stroke="#D7B578" stroke-width="9.375000e-002" d="M933.2,1080.1c7.7,0.1,15.3,0.2,23,0c0,11.9,0,23.9,0,35.8
		c-7.7-0.1-15.3-0.1-22.9,0C933.2,1104,933.2,1092,933.2,1080.1z"/>
	<path fill="#D7B578" stroke="#D7B578" stroke-width="9.375000e-002" d="M963.8,1080.1c7.6,0.1,15.3,0.2,22.9,0c0,12,0,24,0,36
		c-7.6-0.2-15.3-0.2-22.9-0.1C963.8,1104,963.8,1092,963.8,1080.1z"/>
	<path fill="#D7B578" stroke="#D7B578" stroke-width="9.375000e-002" d="M994.3,1080c7.6,0.2,15.3,0.3,22.9,0.1
		c0,11.9,0,23.9,0,35.8c-7.6-0.1-15.3-0.1-22.9,0C994.3,1104,994.3,1092,994.3,1080z"/>
	<path fill="#D7B578" stroke="#D7B578" stroke-width="9.375000e-002" d="M1024.9,1080.1c7.6,0,15.3,0.2,22.9,0c0,11.9,0,23.9,0,35.8
		c-7.6-0.1-15.3,0-22.9,0C1024.9,1104,1024.9,1092,1024.9,1080.1z"/>
	<path fill="#D7B578" stroke="#D7B578" stroke-width="9.375000e-002" d="M1055.5,1080.1c5.5,0.2,11,0,16.5,0.2
		c0.2,11.9,0.3,23.8,0,35.6c-5.5,0-11,0-16.4,0.1C1055.4,1104,1055.4,1092,1055.5,1080.1z"/>
	<path fill="#EEC784" stroke="#EEC784" stroke-width="9.375000e-002" d="M872,1115.9c7.6-0.1,15.3-0.1,22.9,0.1
		c0,72,0,144.1,0,216.1c-7.6-0.1-15.3-0.1-22.9,0C872,1260,872.1,1187.9,872,1115.9z"/>
	<path fill="#EEC784" stroke="#EEC784" stroke-width="9.375000e-002" d="M902.6,1115.9c7.6,0,15.3-0.1,22.9,0.1c0,72,0,144,0,216
		c-7.6,0-15.3,0-22.9,0C902.7,1259.9,902.7,1187.9,902.6,1115.9z"/>
	<path fill="#EEC784" stroke="#EEC784" stroke-width="9.375000e-002" d="M933.2,1115.9c7.7-0.1,15.3-0.1,22.9,0c0,72,0,144,0,216
		c-7.7,0.1-15.3,0-22.9,0C933.2,1259.9,933.2,1187.9,933.2,1115.9z"/>
	<path fill="#EEC784" stroke="#EEC784" stroke-width="9.375000e-002" d="M963.8,1115.9c7.6-0.1,15.3-0.1,22.9,0.1
		c0,72,0,143.9,0,215.9c-7.6,0-15.3,0-22.9,0.1C963.7,1260,963.7,1188,963.8,1115.9z"/>
	<path fill="#EEC784" stroke="#EEC784" stroke-width="9.375000e-002" d="M994.3,1115.9c7.6-0.1,15.3-0.1,22.9,0
		c0,72,0,144.1,0,216.1c-7.6-0.1-15.3-0.1-22.9,0C994.3,1260,994.3,1188,994.3,1115.9z"/>
	<path fill="#EEC784" stroke="#EEC784" stroke-width="9.375000e-002" d="M1024.9,1115.9c7.6,0,15.3-0.1,22.9,0c0,72,0,144.1,0,216.1
		c-7.6-0.1-15.3-0.1-22.9,0C1024.9,1260,1024.9,1187.9,1024.9,1115.9z"/>
	<path fill="#D7B578" stroke="#D7B578" stroke-width="9.375000e-002" d="M847.2,1332.1c5.7-0.3,11.4-0.2,17.2-0.1
		c0,11.9,0,23.9,0,35.8c-5.7-0.2-11.4-0.1-17.2-0.1C847.1,1355.8,847.1,1344,847.2,1332.1z"/>
	<path fill="#D7B578" stroke="#D7B578" stroke-width="9.375000e-002" d="M872,1332c7.6-0.1,15.3,0,22.9,0c0,11.9,0,23.8,0,35.8
		c-7.6-0.4-15.3,0-22.9,0C872,1355.9,872,1343.9,872,1332z"/>
	<path fill="#D7B578" stroke="#D7B578" stroke-width="9.375000e-002" d="M902.6,1331.9c7.6,0,15.3,0,22.9,0c0,12,0,23.9,0,35.9
		c-7.6-0.3-15.3-0.2-22.9,0C902.6,1355.9,902.6,1343.9,902.6,1331.9z"/>
	<path fill="#D7B578" stroke="#D7B578" stroke-width="9.375000e-002" d="M933.2,1331.9c7.6,0,15.3,0.1,22.9,0c0,12,0,23.9,0,35.8
		c-7.7-0.3-15.3-0.1-23,0C933.2,1355.9,933.2,1343.9,933.2,1331.9z"/>
	<path fill="#D7B578" stroke="#D7B578" stroke-width="9.375000e-002" d="M963.8,1332.1c7.6-0.1,15.3-0.1,22.9-0.1c0,12,0,24,0,36
		c-7.6-0.2-15.3-0.4-22.9-0.2C963.8,1355.8,963.8,1344,963.8,1332.1z"/>
	<path fill="#D7B578" stroke="#D7B578" stroke-width="9.375000e-002" d="M994.3,1332c7.6-0.1,15.3-0.1,22.9,0c0,11.9,0,23.9,0,35.8
		c-7.6-0.2-15.3-0.1-22.9-0.1C994.3,1355.8,994.3,1343.9,994.3,1332z"/>
	<path fill="#D7B578" stroke="#D7B578" stroke-width="9.375000e-002" d="M1024.9,1332c7.6-0.1,15.3-0.1,22.9,0c0,11.9,0,23.9,0,35.8
		c-7.6-0.2-15.3-0.2-22.9,0C1024.9,1355.9,1024.9,1343.9,1024.9,1332z"/>
	<path fill="#D7B578" stroke="#D7B578" stroke-width="9.375000e-002" d="M1055.5,1332c5.5-0.1,11-0.1,16.5,0.1
		c0.1,11.9,0.4,23.8-0.1,35.6c-5.5,0.1-10.9,0-16.4,0.2C1055.5,1355.9,1055.4,1344,1055.5,1332z"/>
	<path fill="#EEC784" stroke="#EEC784" stroke-width="9.375000e-002" d="M872,1367.8c7.6-0.1,15.3-0.4,22.9,0c0,72,0,144.1,0,216.1
		c-7.6-0.1-15.3-0.2-22.9,0C872,1511.9,872.1,1439.8,872,1367.8z"/>
	<path fill="#EEC784" stroke="#EEC784" stroke-width="9.375000e-002" d="M933.2,1367.8c7.7-0.1,15.3-0.3,23,0c0,72,0,144.1,0,216.1
		c-7.6-0.2-15.3-0.1-22.9-0.1C933.2,1511.8,933.2,1439.8,933.2,1367.8z"/>
	<path fill="#EEC784" stroke="#EEC784" stroke-width="9.375000e-002" d="M963.8,1367.8c7.6-0.2,15.3-0.1,22.9,0.2c0,72,0,144,0,216
		c-7.6-0.1-15.3-0.2-22.9,0C963.7,1511.9,963.8,1439.8,963.8,1367.8z"/>
	<path fill="#EEC784" stroke="#EEC784" stroke-width="9.375000e-002" d="M994.3,1367.7c7.6,0,15.3,0,22.9,0.1
		c0,72.1,0,144.1,0,216.2c-7.6-0.3-15.3-0.2-22.9,0C994.3,1511.8,994.3,1439.8,994.3,1367.7z"/>
	<path fill="#EEC784" stroke="#EEC784" stroke-width="9.375000e-002" d="M902.6,1367.8c7.6-0.2,15.3-0.2,22.9,0c0,72,0,144,0,216
		c-7.6-0.2-15.3-0.1-22.9,0.1C902.7,1511.9,902.7,1439.9,902.6,1367.8z"/>
	<path fill="#EEC784" stroke="#EEC784" stroke-width="9.375000e-002" d="M1024.9,1367.8c7.6-0.1,15.3-0.2,22.9,0
		c0,72,0,144.1,0,216.1c-7.6-0.1-15.3-0.2-22.9,0C1024.9,1511.9,1024.9,1439.8,1024.9,1367.8z"/>
	<path fill="#D7B578" stroke="#D7B578" stroke-width="9.375000e-002" d="M847.3,1584.1c5.7-0.4,11.4-0.3,17.2-0.1
		c0,11.8,0,23.5,0,35.3c-5.7,0.8-11.4,0.4-17.1,0.4C847,1607.8,847.2,1595.9,847.3,1584.1z"/>
	<path fill="#D7B578" stroke="#D7B578" stroke-width="9.375000e-002" d="M872.1,1583.9c7.6-0.1,15.2-0.1,22.9,0
		c0,11.7,0,23.4,0,35.2c-7.6,0.2-15.3,0.2-22.9,0C872,1607.4,872,1595.6,872.1,1583.9z"/>
	<path fill="#D7B579" stroke="#D7B579" stroke-width="9.375000e-002" d="M902.6,1584c7.6-0.1,15.3-0.2,22.9-0.1
		c0,11.8,0,23.5,0,35.3c-7.6,0.1-15.3,0.1-22.9-0.1C902.6,1607.4,902.6,1595.7,902.6,1584z"/>
	<path fill="#D7B578" stroke="#D7B578" stroke-width="9.375000e-002" d="M933.2,1583.9c7.6-0.1,15.3-0.1,22.9,0.1
		c0,11.7,0,23.4,0,35.2c-7.6,0.2-15.3,0.1-22.9,0C933.2,1607.4,933.2,1595.6,933.2,1583.9z"/>
	<path fill="#D7B578" stroke="#D7B578" stroke-width="9.375000e-002" d="M963.8,1583.9c7.6-0.2,15.3-0.1,22.9,0
		c0,11.7,0,23.5,0,35.2c-7.6,0-15.3,0.1-22.9-0.1C963.8,1607.4,963.8,1595.6,963.8,1583.9z"/>
	<path fill="#D7B578" stroke="#D7B578" stroke-width="9.375000e-002" d="M994.3,1583.9c7.6-0.2,15.3-0.2,22.9,0
		c0,11.7,0,23.4,0,35.1c-7.6,0.2-15.3,0.3-22.9,0C994.3,1607.3,994.3,1595.6,994.3,1583.9z"/>
	<path fill="#D7B578" stroke="#D7B578" stroke-width="9.375000e-002" d="M1024.9,1583.9c7.6-0.1,15.3-0.1,22.9,0
		c0,11.7,0,23.4,0,35.2c-7.6,0.1-15.3,0.4-22.9-0.1C1024.9,1607.3,1024.9,1595.6,1024.9,1583.9z"/>
	<path fill="#D7B578" stroke="#D7B578" stroke-width="9.375000e-002" d="M1055.5,1583.9c5.5-0.1,11-0.2,16.5,0.1
		c0.1,11.7,0.3,23.4,0,35.1c-5.5,0.2-11,0.2-16.5,0.1C1055.4,1607.4,1055.4,1595.6,1055.5,1583.9z"/>
	<g>
		<path fill="#776444" stroke="#000000" stroke-width="0.75" d="M874.4,576.4c-1.4-17,1.5-29.3,8.6-36.8c6.7,7.7,10.4,18.9,8.3,36.7
			L874.4,576.4z"/>
		<path fill="#776444" stroke="#000000" stroke-width="0.75" d="M900.1,576.4c-1.4-17,1.5-29.3,8.6-36.8c6.7,7.7,10.4,18.9,8.3,36.7
			L900.1,576.4z"/>
		<path fill="#776444" stroke="#000000" stroke-width="0.75" d="M925.7,576.4c-1.4-17,1.5-29.3,8.6-36.8c6.7,7.7,10.4,18.9,8.3,36.7
			L925.7,576.4z"/>
		<path fill="#776444" stroke="#000000" stroke-width="0.75" d="M951.4,576.4c-1.4-17,1.5-29.3,8.6-36.8c6.7,7.7,10.4,18.9,8.3,36.7
			L951.4,576.4z"/>
		<path fill="#776444" stroke="#000000" stroke-width="0.75" d="M977.1,576.4c-1.4-17,1.5-29.3,8.6-36.8c6.7,7.7,10.4,18.9,8.3,36.7
			L977.1,576.4z"/>
		<path fill="#776444" stroke="#000000" stroke-width="0.75" d="M1002.7,576.4c-1.4-17,1.5-29.3,8.6-36.8
			c6.7,7.7,10.4,18.9,8.3,36.7L1002.7,576.4z"/>
		<path fill="#776444" stroke="#000000" stroke-width="0.75" d="M1028.4,576.4c-1.4-17,1.5-29.3,8.6-36.8
			c6.7,7.7,10.4,18.9,8.3,36.7L1028.4,576.4z"/>
	</g>
	<g>
		<g>
			<path fill="#776444" stroke="#000000" stroke-width="0.8929" d="M899.7,446.4c-1.4-24.2,1.5-41.6,8.6-52.1
				c6.7,10.9,10.4,26.8,8.3,52.1L899.7,446.4z"/>
		</g>
		<g>
			<path fill="#776444" stroke="#000000" stroke-width="0.8929" d="M925.5,446.4c-1.4-24.2,1.5-41.6,8.6-52.1
				c6.7,10.9,10.4,26.8,8.3,52.1L925.5,446.4z"/>
		</g>
		<g>
			<path fill="#776444" stroke="#000000" stroke-width="0.8929" d="M951.4,446.4c-1.4-24.2,1.5-41.6,8.6-52.1
				c6.7,10.9,10.4,26.8,8.3,52.1L951.4,446.4z"/>
		</g>
		<g>
			<path fill="#776444" stroke="#000000" stroke-width="0.8929" d="M977.3,446.4c-1.4-24.2,1.5-41.6,8.6-52.1
				c6.7,10.9,10.4,26.8,8.3,52.1L977.3,446.4z"/>
		</g>
		<g>
			<path fill="#776444" stroke="#000000" stroke-width="0.8929" d="M1003.2,446.4c-1.4-24.2,1.5-41.6,8.6-52.1
				c6.7,10.9,10.4,26.8,8.3,52.1L1003.2,446.4z"/>
		</g>
	</g>
	<line fill="#776444" stroke="#776444" x1="833.7" y1="577.1" x2="1087" y2="577.1"/>
	<line fill="#715B39" stroke="#715B39" x1="1087" y1="577.1" x2="1087" y2="832.8"/>
	<rect x="883.4" y="303" fill="#737372" stroke="#737372" stroke-width="9.375000e-002" width="1.2" height="60.3"/>
	<rect x="1033.9" y="303.5" fill="#737372" stroke="#737372" stroke-width="9.375000e-002" width="1.2" height="60.3"/>
	<rect x="842.4" y="466.2" fill="#737372" stroke="#737372" stroke-width="9.375000e-002" width="1.2" height="60.3"/>
	<rect x="832.9" y="516.5" fill="#737372" stroke="#737372" stroke-width="9.375000e-002" width="1.2" height="60.3"/>
	<rect x="1075.1" y="466.2" fill="#737372" stroke="#737372" stroke-width="9.375000e-002" width="1.2" height="60.3"/>
	<rect x="1085.6" y="516.5" fill="#737372" stroke="#737372" stroke-width="9.375000e-002" width="1.2" height="60.3"/>
	<g>
		<g>
			<g>
				<circle fill="#FFFFFF" stroke="#000000" stroke-miterlimit="10" cx="960" cy="704.4" r="81.3"/>
				<circle fill="#FFFFFF" stroke="#000000" stroke-miterlimit="10" cx="960" cy="704.4" r="72.8"/>
				<circle fill="#FFFFFF" stroke="#000000" stroke-miterlimit="10" cx="960" cy="704.4" r="65"/>
				<circle fill="#FFFFFF" stroke="#000000" stroke-miterlimit="10" cx="960.2" cy="704.4" r="48.8"/>
			</g>
			<g>
				<path d="M955.4,647.9c0.5,0.6,1,1.3,1.4,1.9c0.5,0.6,0.9,1.3,1.4,1.9c0.1,0.2,0.2,0.3,0.3,0.4c0.1,0.1,0.2,0.2,0.3,0.2
					c0.1,0.1,0.2,0.1,0.3,0.1c0.1,0,0.3,0.1,0.5,0.1c0.1,0,0.1,0,0.1,0.1c0,0,0.1,0.1,0.1,0.2s0,0.1,0,0.2c0,0-0.1,0.1-0.1,0.1
					c-0.4,0-0.7,0-1-0.1c-0.3,0-0.6-0.1-1-0.1c-0.3,0-0.7,0-1,0.1s-0.7,0.1-1,0.1c-0.1,0-0.1,0-0.1-0.1s0-0.1,0-0.1
					c0-0.1,0-0.1,0-0.2c0,0,0.1-0.1,0.1-0.1c0.4,0,0.6-0.1,0.7-0.1c0.1-0.1,0.2-0.1,0.2-0.2c0-0.1-0.1-0.2-0.2-0.4
					c-0.1-0.2-0.3-0.4-0.4-0.7c-0.2-0.3-0.5-0.7-0.7-1s-0.5-0.7-0.8-1c-0.1-0.1-0.1-0.1-0.2-0.1s-0.1,0.1-0.1,0.1
					c-0.1,0.2-0.3,0.4-0.5,0.7s-0.4,0.6-0.6,0.8c-0.2,0.3-0.3,0.5-0.5,0.8c-0.1,0.2-0.2,0.4-0.2,0.5c0,0.1,0,0.2,0.1,0.3
					c0.1,0.1,0.1,0.1,0.2,0.2c0.1,0,0.2,0.1,0.3,0.1c0.1,0,0.2,0,0.4,0.1c0.1,0,0.1,0,0.1,0.1c0,0,0.1,0.1,0.1,0.2
					c0,0.1,0,0.1-0.1,0.1c0,0-0.1,0.1-0.1,0.1c-0.3,0-0.5,0-0.8-0.1c-0.3,0-0.6-0.1-0.9-0.1c-0.3,0-0.5,0-0.8,0.1
					c-0.3,0-0.5,0.1-0.8,0.1c-0.1,0-0.1,0-0.2-0.1s0-0.1,0-0.1c0-0.1,0-0.1,0-0.2c0,0,0.1-0.1,0.2-0.1c0.2,0,0.4-0.1,0.6-0.1
					c0.2,0,0.3-0.1,0.4-0.2c0.1-0.1,0.2-0.2,0.3-0.3c0.1-0.1,0.2-0.3,0.3-0.5c0.3-0.4,0.6-0.9,1-1.4s0.7-1,1.1-1.4
					c0,0,0.1-0.1,0.1-0.2c0-0.1,0-0.1-0.1-0.2c-0.5-0.6-0.9-1.2-1.4-1.8c-0.4-0.6-0.8-1.1-1.2-1.7c-0.1-0.1-0.2-0.3-0.3-0.4
					c-0.1-0.1-0.2-0.2-0.3-0.2c-0.1-0.1-0.2-0.1-0.3-0.2c-0.1,0-0.3-0.1-0.4-0.1c-0.1,0-0.1,0-0.1-0.1c0,0,0-0.1,0-0.2
					c0-0.1,0-0.1,0-0.2s0.1-0.1,0.1-0.1c0.3,0,0.7,0,1,0c0.3,0,0.6,0,0.9,0c0.3,0,0.6,0,1,0s0.7,0,1,0c0,0,0.1,0,0.1,0.1
					s0,0.1,0,0.2c0,0.1,0,0.1,0,0.2c0,0-0.1,0.1-0.1,0.1c-0.3,0-0.5,0.1-0.7,0.2c-0.1,0.1-0.2,0.2-0.2,0.3c0,0.1,0,0.2,0.1,0.3
					s0.1,0.2,0.2,0.4c0.2,0.3,0.4,0.7,0.7,1s0.5,0.7,0.8,1.1c0.1,0.1,0.2,0.1,0.3,0c0.1-0.1,0.2-0.3,0.4-0.5s0.3-0.5,0.5-0.8
					s0.3-0.5,0.5-0.8c0.1-0.3,0.2-0.5,0.2-0.6c0-0.1,0-0.2-0.1-0.3s-0.1-0.1-0.2-0.1c-0.1,0-0.2-0.1-0.3-0.1c-0.1,0-0.2,0-0.3,0
					c-0.1,0-0.1,0-0.1-0.1c0,0,0-0.1,0-0.2c0-0.1,0-0.1,0.1-0.2s0.1-0.1,0.1-0.1c0.3,0,0.6,0,0.9,0s0.5,0,0.8,0c0.2,0,0.5,0,0.7,0
					s0.5,0,0.7,0c0.1,0,0.1,0,0.1,0.1c0,0.1,0,0.1,0,0.2c0,0.1,0,0.1,0,0.2s-0.1,0.1-0.1,0.1c-0.1,0-0.2,0-0.3,0c-0.1,0-0.2,0-0.2,0
					s-0.1,0-0.2,0.1c-0.1,0-0.1,0.1-0.2,0.1c-0.1,0.1-0.3,0.3-0.5,0.5s-0.3,0.4-0.4,0.6c-0.3,0.4-0.5,0.7-0.9,1.2
					c-0.3,0.4-0.6,0.8-0.9,1.2C955.3,647.7,955.3,647.8,955.4,647.9z"/>
				<path d="M961.5,645.6c0-0.3,0-0.5,0-0.7s-0.1-0.4-0.2-0.5c-0.1-0.1-0.2-0.2-0.4-0.3s-0.4-0.1-0.7-0.1c-0.1,0-0.1,0-0.1-0.1
					c0-0.1,0-0.1,0-0.2c0-0.1,0-0.1,0-0.2c0,0,0.1-0.1,0.1-0.1c0.3,0,0.6,0,1,0c0.4,0,0.7,0,1.1,0c0.2,0,0.4,0,0.6,0s0.3,0,0.5,0
					c0.2,0,0.3,0,0.5,0s0.4,0,0.5,0c0.1,0,0.1,0,0.1,0.1s0,0.1,0,0.2c0,0.1,0,0.1-0.1,0.2c0,0.1-0.1,0.1-0.1,0.1
					c-0.3,0-0.5,0.1-0.7,0.1s-0.3,0.2-0.4,0.3c-0.1,0.1-0.2,0.3-0.2,0.5s0,0.5,0,0.8v5.5c0,0.3,0,0.5,0.1,0.7s0.1,0.3,0.2,0.4
					c0.1,0.1,0.2,0.2,0.4,0.2s0.4,0.1,0.7,0.1c0.1,0,0.1,0,0.1,0.1c0,0,0,0.1,0,0.2s0,0.1,0,0.2s-0.1,0.1-0.2,0.1
					c-0.4,0-0.7,0-1.1-0.1s-0.7-0.1-1-0.1c-0.4,0-0.7,0-1.1,0.1s-0.7,0.1-1,0.1c-0.1,0-0.1,0-0.1-0.1s0-0.1,0-0.2s0-0.1,0-0.2
					c0,0,0.1-0.1,0.1-0.1c0.3,0,0.5-0.1,0.7-0.1s0.3-0.1,0.4-0.2c0.1-0.1,0.2-0.2,0.2-0.4s0-0.4,0-0.7V645.6z"/>
				<path d="M966.8,645.6c0-0.3,0-0.5,0-0.7s-0.1-0.4-0.2-0.5c-0.1-0.1-0.2-0.2-0.4-0.3s-0.4-0.1-0.7-0.1c-0.1,0-0.1,0-0.1-0.1
					c0-0.1,0-0.1,0-0.2c0-0.1,0-0.1,0-0.2c0,0,0.1-0.1,0.1-0.1c0.3,0,0.6,0,1,0c0.4,0,0.7,0,1.1,0c0.2,0,0.4,0,0.6,0s0.3,0,0.5,0
					c0.2,0,0.3,0,0.5,0s0.4,0,0.5,0c0.1,0,0.1,0,0.1,0.1s0,0.1,0,0.2c0,0.1,0,0.1-0.1,0.2c0,0.1-0.1,0.1-0.1,0.1
					c-0.3,0-0.5,0.1-0.7,0.1s-0.3,0.2-0.4,0.3c-0.1,0.1-0.2,0.3-0.2,0.5s0,0.5,0,0.8v5.5c0,0.3,0,0.5,0.1,0.7s0.1,0.3,0.2,0.4
					c0.1,0.1,0.2,0.2,0.4,0.2s0.4,0.1,0.7,0.1c0.1,0,0.1,0,0.1,0.1c0,0,0,0.1,0,0.2s0,0.1,0,0.2s-0.1,0.1-0.2,0.1
					c-0.4,0-0.7,0-1.1-0.1s-0.7-0.1-1-0.1c-0.4,0-0.7,0-1.1,0.1s-0.7,0.1-1,0.1c-0.1,0-0.1,0-0.1-0.1s0-0.1,0-0.2s0-0.1,0-0.2
					c0,0,0.1-0.1,0.1-0.1c0.3,0,0.5-0.1,0.7-0.1s0.3-0.1,0.4-0.2c0.1-0.1,0.2-0.2,0.2-0.4s0-0.4,0-0.7V645.6z"/>
			</g>
			<g>
				<path d="M988.2,652.3c0.1-0.3,0.3-0.5,0.3-0.7c0.1-0.2,0.1-0.4,0.1-0.5c0-0.2-0.1-0.3-0.2-0.5c-0.1-0.1-0.3-0.3-0.5-0.5
					c0,0-0.1-0.1-0.1-0.1c0-0.1,0-0.1,0-0.2c0-0.1,0.1-0.1,0.1-0.1s0.1,0,0.1,0c0.3,0.1,0.5,0.3,0.9,0.5c0.3,0.2,0.6,0.4,0.9,0.6
					c0.2,0.1,0.3,0.2,0.5,0.3c0.2,0.1,0.3,0.2,0.4,0.2c0.1,0.1,0.3,0.1,0.4,0.2c0.2,0.1,0.3,0.2,0.5,0.3c0.1,0,0.1,0.1,0.1,0.1
					c0,0.1,0,0.1-0.1,0.1c0,0-0.1,0.1-0.1,0.1c-0.1,0-0.1,0-0.1,0c-0.3-0.1-0.5-0.2-0.7-0.2s-0.3,0-0.5,0c-0.1,0.1-0.3,0.2-0.4,0.3
					s-0.3,0.4-0.4,0.7l-2.7,4.8c-0.2,0.3-0.3,0.5-0.3,0.6c-0.1,0.2-0.1,0.3,0,0.4s0.1,0.3,0.3,0.4c0.1,0.1,0.3,0.3,0.5,0.4
					c0,0,0.1,0.1,0.1,0.1s0,0.1,0,0.2c0,0-0.1,0.1-0.1,0.1c0,0-0.1,0-0.2,0c-0.3-0.2-0.6-0.4-0.9-0.6s-0.6-0.4-0.8-0.6
					c-0.3-0.2-0.6-0.3-1-0.5s-0.6-0.3-0.9-0.5c-0.1,0-0.1-0.1-0.1-0.1c0-0.1,0-0.1,0-0.2s0.1-0.1,0.1-0.1c0,0,0.1,0,0.2,0
					c0.3,0.1,0.5,0.2,0.7,0.3s0.3,0.1,0.5,0c0.1,0,0.3-0.1,0.4-0.2c0.1-0.1,0.2-0.3,0.4-0.6L988.2,652.3z"/>
			</g>
			<g>
				<path d="M1006.8,667.8c0.3-0.1,0.5-0.3,0.6-0.4c0.2-0.1,0.3-0.3,0.3-0.4c0.1-0.1,0.1-0.3,0.1-0.5c0-0.2-0.1-0.4-0.2-0.7
					c0,0,0-0.1,0-0.1c0-0.1,0.1-0.1,0.1-0.1s0.1,0,0.2,0c0.1,0,0.1,0,0.1,0.1c0.1,0.3,0.3,0.6,0.5,0.9c0.2,0.3,0.3,0.7,0.5,1
					c0.1,0.2,0.2,0.3,0.3,0.5c0.1,0.1,0.2,0.3,0.3,0.4c0.1,0.1,0.2,0.3,0.3,0.4c0.1,0.1,0.2,0.3,0.3,0.5c0,0.1,0,0.1,0,0.1
					c0,0-0.1,0.1-0.1,0.1c-0.1,0-0.1,0-0.2,0c-0.1,0-0.1,0-0.1-0.1c-0.2-0.2-0.3-0.4-0.5-0.5s-0.3-0.2-0.4-0.2c-0.2,0-0.3,0-0.5,0.1
					c-0.2,0.1-0.4,0.2-0.7,0.4l-4.8,2.7c-0.3,0.2-0.5,0.3-0.6,0.4c-0.1,0.1-0.2,0.2-0.2,0.4s0,0.3,0,0.5c0.1,0.2,0.1,0.4,0.3,0.6
					c0,0.1,0,0.1,0,0.2c0,0.1-0.1,0.1-0.1,0.1s-0.1,0-0.2,0s-0.1,0-0.1-0.1c-0.2-0.3-0.3-0.6-0.5-1c-0.1-0.3-0.3-0.6-0.5-0.9
					c-0.2-0.3-0.4-0.6-0.6-0.9c-0.2-0.3-0.4-0.6-0.6-0.9c0-0.1,0-0.1,0-0.1s0.1-0.1,0.1-0.1c0,0,0.1,0,0.2,0c0.1,0,0.1,0,0.1,0.1
					c0.2,0.2,0.3,0.4,0.4,0.5c0.1,0.1,0.3,0.2,0.4,0.3s0.3,0,0.4,0c0.2-0.1,0.4-0.2,0.6-0.3L1006.8,667.8z"/>
				<path d="M1009.4,672.4c0.3-0.1,0.5-0.3,0.6-0.4c0.2-0.1,0.3-0.3,0.3-0.4c0.1-0.1,0.1-0.3,0.1-0.5c0-0.2-0.1-0.4-0.2-0.7
					c0,0,0-0.1,0-0.1c0-0.1,0.1-0.1,0.1-0.1s0.1,0,0.2,0c0.1,0,0.1,0,0.1,0.1c0.1,0.3,0.3,0.6,0.5,0.9c0.2,0.3,0.3,0.7,0.5,1
					c0.1,0.2,0.2,0.3,0.3,0.5c0.1,0.1,0.2,0.3,0.3,0.4c0.1,0.1,0.2,0.3,0.3,0.4c0.1,0.1,0.2,0.3,0.3,0.5c0,0.1,0,0.1,0,0.1
					c0,0-0.1,0.1-0.1,0.1c-0.1,0-0.1,0-0.2,0c-0.1,0-0.1,0-0.1-0.1c-0.2-0.2-0.3-0.4-0.5-0.5s-0.3-0.2-0.4-0.2c-0.2,0-0.3,0-0.5,0.1
					c-0.2,0.1-0.4,0.2-0.7,0.4l-4.8,2.7c-0.3,0.2-0.5,0.3-0.6,0.4c-0.1,0.1-0.2,0.2-0.2,0.4s0,0.3,0,0.5c0.1,0.2,0.1,0.4,0.3,0.6
					c0,0.1,0,0.1,0,0.2c0,0.1-0.1,0.1-0.1,0.1s-0.1,0-0.2,0s-0.1,0-0.1-0.1c-0.2-0.3-0.3-0.6-0.5-1c-0.1-0.3-0.3-0.6-0.5-0.9
					c-0.2-0.3-0.4-0.6-0.6-0.9c-0.2-0.3-0.4-0.6-0.6-0.9c0-0.1,0-0.1,0-0.1s0.1-0.1,0.1-0.1c0,0,0.1,0,0.2,0c0.1,0,0.1,0,0.1,0.1
					c0.2,0.2,0.3,0.4,0.4,0.5c0.1,0.1,0.3,0.2,0.4,0.3s0.3,0,0.4,0c0.2-0.1,0.4-0.2,0.6-0.3L1009.4,672.4z"/>
			</g>
			<g>
				<path d="M1018.8,696.1c0.3,0,0.5,0,0.7,0s0.4-0.1,0.5-0.2c0.1-0.1,0.2-0.2,0.3-0.4c0.1-0.2,0.1-0.4,0.1-0.7c0-0.1,0-0.1,0.1-0.1
					c0.1,0,0.1,0,0.2,0s0.1,0,0.2,0c0,0,0.1,0.1,0.1,0.1c0,0.3,0,0.6,0,1c0,0.4,0,0.7,0,1.1c0,0.2,0,0.4,0,0.6s0,0.3,0,0.5
					c0,0.2,0,0.3,0,0.5s0,0.4,0,0.5c0,0.1,0,0.1-0.1,0.1s-0.1,0-0.2,0s-0.1,0-0.2-0.1c-0.1,0-0.1-0.1-0.1-0.1c0-0.3-0.1-0.5-0.1-0.7
					c-0.1-0.2-0.2-0.3-0.3-0.4c-0.1-0.1-0.3-0.2-0.5-0.2s-0.5,0-0.8,0h-5.5c-0.3,0-0.5,0-0.7,0.1s-0.3,0.1-0.4,0.2
					c-0.1,0.1-0.2,0.2-0.2,0.4c0,0.2-0.1,0.4-0.1,0.7c0,0.1,0,0.1-0.1,0.1c0,0-0.1,0-0.2,0s-0.1,0-0.2,0s-0.1-0.1-0.1-0.2
					c0-0.4,0-0.7,0.1-1.1s0.1-0.7,0.1-1c0-0.4,0-0.7-0.1-1.1s-0.1-0.7-0.1-1c0-0.1,0-0.1,0.1-0.1s0.1,0,0.2,0s0.1,0,0.2,0
					c0,0,0.1,0.1,0.1,0.1c0,0.3,0.1,0.5,0.1,0.7c0,0.2,0.1,0.3,0.2,0.4c0.1,0.1,0.2,0.2,0.4,0.2s0.4,0,0.7,0H1018.8z"/>
				<path d="M1018.8,701.4c0.3,0,0.5,0,0.7,0s0.4-0.1,0.5-0.2c0.1-0.1,0.2-0.2,0.3-0.4c0.1-0.2,0.1-0.4,0.1-0.7c0-0.1,0-0.1,0.1-0.1
					c0.1,0,0.1,0,0.2,0s0.1,0,0.2,0c0,0,0.1,0.1,0.1,0.1c0,0.3,0,0.6,0,1c0,0.4,0,0.7,0,1.1c0,0.2,0,0.4,0,0.6s0,0.3,0,0.5
					c0,0.2,0,0.3,0,0.5s0,0.4,0,0.5c0,0.1,0,0.1-0.1,0.1s-0.1,0-0.2,0s-0.1,0-0.2-0.1c-0.1,0-0.1-0.1-0.1-0.1c0-0.3-0.1-0.5-0.1-0.7
					c-0.1-0.2-0.2-0.3-0.3-0.4c-0.1-0.1-0.3-0.2-0.5-0.2s-0.5,0-0.8,0h-5.5c-0.3,0-0.5,0-0.7,0.1s-0.3,0.1-0.4,0.2
					c-0.1,0.1-0.2,0.2-0.2,0.4c0,0.2-0.1,0.4-0.1,0.7c0,0.1,0,0.1-0.1,0.1c0,0-0.1,0-0.2,0s-0.1,0-0.2,0s-0.1-0.1-0.1-0.2
					c0-0.4,0-0.7,0.1-1.1s0.1-0.7,0.1-1c0-0.4,0-0.7-0.1-1.1s-0.1-0.7-0.1-1c0-0.1,0-0.1,0.1-0.1s0.1,0,0.2,0s0.1,0,0.2,0
					c0,0,0.1,0.1,0.1,0.1c0,0.3,0.1,0.5,0.1,0.7c0,0.2,0.1,0.3,0.2,0.4c0.1,0.1,0.2,0.2,0.4,0.2s0.4,0,0.7,0H1018.8z"/>
				<path d="M1018.8,706.7c0.3,0,0.5,0,0.7,0s0.4-0.1,0.5-0.2c0.1-0.1,0.2-0.2,0.3-0.4c0.1-0.2,0.1-0.4,0.1-0.7c0-0.1,0-0.1,0.1-0.1
					c0.1,0,0.1,0,0.2,0s0.1,0,0.2,0c0,0,0.1,0.1,0.1,0.1c0,0.3,0,0.6,0,1c0,0.4,0,0.7,0,1.1c0,0.2,0,0.4,0,0.6s0,0.3,0,0.5
					c0,0.2,0,0.3,0,0.5s0,0.4,0,0.5c0,0.1,0,0.1-0.1,0.1s-0.1,0-0.2,0s-0.1,0-0.2-0.1c-0.1,0-0.1-0.1-0.1-0.1c0-0.3-0.1-0.5-0.1-0.7
					c-0.1-0.2-0.2-0.3-0.3-0.4c-0.1-0.1-0.3-0.2-0.5-0.2s-0.5,0-0.8,0h-5.5c-0.3,0-0.5,0-0.7,0.1s-0.3,0.1-0.4,0.2
					c-0.1,0.1-0.2,0.2-0.2,0.4c0,0.2-0.1,0.4-0.1,0.7c0,0.1,0,0.1-0.1,0.1c0,0-0.1,0-0.2,0s-0.1,0-0.2,0s-0.1-0.1-0.1-0.2
					c0-0.4,0-0.7,0.1-1.1s0.1-0.7,0.1-1c0-0.4,0-0.7-0.1-1.1s-0.1-0.7-0.1-1c0-0.1,0-0.1,0.1-0.1s0.1,0,0.2,0s0.1,0,0.2,0
					c0,0,0.1,0.1,0.1,0.1c0,0.3,0.1,0.5,0.1,0.7c0,0.2,0.1,0.3,0.2,0.4c0.1,0.1,0.2,0.2,0.4,0.2s0.4,0,0.7,0H1018.8z"/>
			</g>
			<g>
				<path d="M1014.1,728.6c0.3,0.1,0.5,0.3,0.7,0.3c0.2,0.1,0.4,0.1,0.5,0.1c0.2,0,0.3-0.1,0.5-0.2c0.1-0.1,0.3-0.3,0.5-0.5
					c0,0,0.1-0.1,0.1-0.1c0.1,0,0.1,0,0.2,0c0.1,0,0.1,0.1,0.1,0.1s0,0.1,0,0.1c-0.1,0.3-0.3,0.5-0.5,0.9c-0.2,0.3-0.4,0.6-0.6,0.9
					c-0.1,0.2-0.2,0.3-0.3,0.5c-0.1,0.2-0.2,0.3-0.2,0.4c-0.1,0.1-0.1,0.3-0.2,0.4c-0.1,0.2-0.2,0.3-0.3,0.5c0,0.1-0.1,0.1-0.1,0.1
					c-0.1,0-0.1,0-0.1-0.1c0,0-0.1-0.1-0.1-0.1c0-0.1,0-0.1,0-0.1c0.1-0.3,0.2-0.5,0.2-0.7s0-0.3,0-0.5c-0.1-0.1-0.2-0.3-0.3-0.4
					s-0.4-0.3-0.7-0.4l-4.8-2.7c-0.3-0.2-0.5-0.3-0.6-0.3c-0.2-0.1-0.3-0.1-0.4,0s-0.3,0.1-0.4,0.3c-0.1,0.1-0.3,0.3-0.4,0.5
					c0,0-0.1,0.1-0.1,0.1s-0.1,0-0.2,0c0,0-0.1-0.1-0.1-0.1c0,0,0-0.1,0-0.2c0.2-0.3,0.4-0.6,0.6-0.9s0.4-0.6,0.6-0.8
					c0.2-0.3,0.3-0.6,0.5-1s0.3-0.6,0.5-0.9c0-0.1,0.1-0.1,0.1-0.1c0.1,0,0.1,0,0.2,0s0.1,0.1,0.1,0.1c0,0,0,0.1,0,0.2
					c-0.1,0.3-0.2,0.5-0.3,0.7s-0.1,0.3,0,0.5c0,0.1,0.1,0.3,0.2,0.4c0.1,0.1,0.3,0.2,0.6,0.4L1014.1,728.6z"/>
				<path d="M1003.7,731.9c1.4,0.2,2.7,0.3,4,0.5c1.3,0.2,2.6,0.4,4,0.6c0.3,0,0.5,0.1,0.7,0.1c0.2,0,0.4,0,0.5,0s0.3-0.1,0.5-0.3
					c0.2-0.1,0.3-0.3,0.5-0.5c0,0,0.1-0.1,0.1-0.1c0.1,0,0.1,0,0.2,0c0,0,0.1,0.1,0.1,0.1c0,0,0,0.1,0,0.1c-0.2,0.3-0.4,0.6-0.6,0.9
					c-0.2,0.3-0.4,0.6-0.5,0.8c-0.2,0.3-0.3,0.6-0.5,1c-0.2,0.3-0.3,0.7-0.5,0.9c0,0.1-0.1,0.1-0.1,0.1c-0.1,0-0.1,0-0.2,0
					c-0.1,0-0.1-0.1-0.1-0.1s0-0.1,0-0.2c0.1-0.1,0.1-0.2,0.2-0.3c0.1-0.1,0.1-0.2,0.1-0.3s0-0.2,0-0.3c0-0.1-0.1-0.2-0.2-0.3
					c-0.2-0.1-0.9-0.3-2-0.5c-1.1-0.2-2.6-0.4-4.7-0.7c0,0-0.1,0-0.1,0.1c0,0,0,0.1,0,0.1c0.6,0.8,1.2,1.4,1.6,2
					c0.5,0.6,0.9,1.1,1.2,1.5c0.4,0.4,0.7,0.7,0.9,1c0.2,0.2,0.4,0.4,0.6,0.5c0.1,0.1,0.3,0.1,0.4,0.1c0.1,0,0.2,0,0.3-0.1
					c0.1,0,0.2-0.1,0.2-0.2c0.1-0.1,0.1-0.2,0.2-0.4c0-0.1,0.1-0.1,0.1-0.1c0.1,0,0.1,0,0.2,0c0.1,0,0.1,0.1,0.1,0.1
					c0,0,0,0.1,0,0.1c-0.2,0.3-0.3,0.5-0.5,0.7c-0.2,0.2-0.3,0.4-0.4,0.7c-0.1,0.2-0.2,0.4-0.3,0.7c-0.1,0.2-0.2,0.5-0.4,0.7
					c0,0-0.1,0.1-0.1,0.1c0,0-0.1,0-0.1,0c-0.1,0-0.1-0.1-0.1-0.1c0-0.1,0-0.1,0-0.2c0.1-0.3,0.2-0.5,0.2-0.7c0-0.2-0.1-0.4-0.2-0.6
					c-0.1-0.2-0.2-0.4-0.4-0.6c-0.2-0.2-0.3-0.4-0.5-0.6c-0.8-1-1.6-2-2.3-2.9c-0.8-1-1.6-1.9-2.3-2.9c0-0.1-0.1-0.1-0.1-0.2
					c0-0.1,0-0.1,0-0.2C1003.5,731.9,1003.6,731.8,1003.7,731.9z"/>
			</g>
			<g>
				<path d="M988.5,747.2c1.1,0.8,2.2,1.6,3.2,2.4c1.1,0.8,2.1,1.7,3.1,2.5c0.2,0.2,0.4,0.3,0.5,0.4c0.2,0.1,0.3,0.2,0.5,0.2
					c0.2,0,0.3,0,0.5,0c0.2,0,0.4-0.1,0.7-0.2c0.1,0,0.1,0,0.2,0c0,0,0.1,0.1,0.1,0.1c0,0,0,0.1,0,0.2c0,0.1,0,0.1-0.1,0.1
					c-0.3,0.2-0.6,0.3-0.9,0.5c-0.3,0.1-0.6,0.3-0.9,0.5c-0.3,0.2-0.6,0.4-0.9,0.6c-0.3,0.2-0.6,0.4-0.9,0.6c-0.1,0-0.1,0-0.2,0
					c-0.1,0-0.1-0.1-0.1-0.1c0-0.1,0-0.1,0-0.2c0-0.1,0-0.1,0.1-0.1c0.1-0.1,0.2-0.1,0.3-0.2s0.2-0.1,0.3-0.2
					c0.1-0.1,0.1-0.2,0.1-0.3c0-0.1,0-0.2-0.1-0.3c-0.1-0.2-0.6-0.7-1.5-1.4c-0.8-0.7-2.1-1.7-3.7-3c0,0-0.1,0-0.1,0
					c0,0-0.1,0.1-0.1,0.1c0.1,1,0.3,1.8,0.4,2.6c0.1,0.7,0.2,1.4,0.3,1.9s0.2,1,0.3,1.3c0.1,0.3,0.2,0.6,0.3,0.7
					c0.1,0.1,0.2,0.3,0.3,0.3c0.1,0.1,0.2,0.1,0.3,0.1c0.1,0,0.2,0,0.3-0.1c0.1-0.1,0.2-0.1,0.4-0.2c0.1,0,0.1,0,0.2,0
					c0.1,0,0.1,0.1,0.1,0.1c0,0.1,0,0.1,0,0.2c0,0.1,0,0.1-0.1,0.1c-0.3,0.2-0.5,0.3-0.8,0.4c-0.2,0.1-0.5,0.2-0.7,0.4
					c-0.2,0.1-0.4,0.3-0.6,0.4c-0.2,0.1-0.4,0.3-0.7,0.4c0,0-0.1,0-0.1,0c0,0-0.1-0.1-0.1-0.1c0-0.1,0-0.1,0-0.2
					c0-0.1,0-0.1,0.1-0.2c0.2-0.2,0.4-0.4,0.5-0.6c0.1-0.2,0.2-0.4,0.2-0.6c0-0.2,0-0.4,0-0.7c0-0.2-0.1-0.5-0.1-0.8
					c-0.2-1.2-0.4-2.5-0.6-3.7c-0.2-1.2-0.4-2.5-0.6-3.7c0-0.1,0-0.1,0-0.2s0.1-0.1,0.1-0.1C988.3,747.1,988.4,747.1,988.5,747.2z"
					/>
			</g>
			<g>
				<path d="M965.6,755.8c0.5,1.3,1.1,2.5,1.6,3.7c0.5,1.2,1,2.5,1.4,3.7c0.1,0.2,0.2,0.5,0.2,0.6c0.1,0.2,0.2,0.3,0.3,0.4
					c0.1,0.1,0.3,0.2,0.5,0.3c0.2,0.1,0.4,0.1,0.7,0.2c0.1,0,0.1,0,0.1,0.1c0,0,0,0.1,0,0.2c0,0.1,0,0.1,0,0.2s-0.1,0.1-0.1,0.1
					c-0.4,0-0.7,0-1,0c-0.3,0-0.7,0-1,0c-0.3,0-0.7,0-1.1,0c-0.4,0-0.7,0-1.1,0c-0.1,0-0.1,0-0.2-0.1c0,0,0-0.1,0-0.1
					c0-0.1,0-0.1,0.1-0.2c0-0.1,0.1-0.1,0.2-0.1c0.1,0,0.2,0,0.4,0c0.1,0,0.2,0,0.3-0.1c0.1,0,0.2-0.1,0.2-0.2
					c0.1-0.1,0.1-0.2,0.1-0.3c0-0.3-0.2-0.9-0.6-1.9c-0.4-1-0.9-2.5-1.7-4.4c0,0,0-0.1-0.1-0.1c-0.1,0-0.1,0-0.1,0.1
					c-0.4,0.9-0.7,1.7-0.9,2.4c-0.3,0.7-0.5,1.3-0.7,1.8c-0.2,0.5-0.3,0.9-0.4,1.3c-0.1,0.3-0.1,0.6-0.1,0.7c0,0.2,0,0.3,0.1,0.4
					s0.1,0.2,0.2,0.2c0.1,0,0.2,0.1,0.3,0.1c0.1,0,0.3,0,0.4,0c0.1,0,0.1,0,0.1,0.1c0,0,0,0.1,0,0.2c0,0.1,0,0.1,0,0.2
					s-0.1,0.1-0.1,0.1c-0.3,0-0.6,0-0.9,0c-0.3,0-0.5,0-0.8,0c-0.3,0-0.5,0-0.7,0c-0.2,0-0.5,0-0.8,0c0,0-0.1,0-0.1-0.1
					c0,0,0-0.1,0-0.1c0-0.1,0-0.1,0.1-0.2c0-0.1,0.1-0.1,0.2-0.1c0.3,0,0.5-0.1,0.7-0.2c0.2-0.1,0.3-0.3,0.5-0.5
					c0.1-0.2,0.2-0.4,0.3-0.6c0.1-0.2,0.2-0.5,0.3-0.7c0.5-1.2,0.9-2.3,1.4-3.5c0.4-1.2,0.9-2.3,1.4-3.5c0-0.1,0.1-0.1,0.1-0.1
					c0.1,0,0.1-0.1,0.2-0.1C965.4,755.6,965.5,755.7,965.6,755.8z"/>
				<path d="M958.7,763.2c0,0.3,0,0.5,0,0.7s0.1,0.4,0.2,0.5c0.1,0.1,0.2,0.2,0.4,0.3c0.2,0.1,0.4,0.1,0.7,0.1c0.1,0,0.1,0,0.1,0.1
					c0,0.1,0,0.1,0,0.2s0,0.1,0,0.2c0,0-0.1,0.1-0.1,0.1c-0.3,0-0.6,0-1,0c-0.4,0-0.7,0-1.1,0c-0.2,0-0.4,0-0.6,0s-0.3,0-0.5,0
					c-0.2,0-0.3,0-0.5,0s-0.4,0-0.5,0c-0.1,0-0.1,0-0.1-0.1s0-0.1,0-0.2s0-0.1,0.1-0.2c0-0.1,0.1-0.1,0.1-0.1c0.3,0,0.5-0.1,0.7-0.1
					c0.2-0.1,0.3-0.2,0.4-0.3c0.1-0.1,0.2-0.3,0.2-0.5s0-0.5,0-0.8v-5.5c0-0.3,0-0.5-0.1-0.7s-0.1-0.3-0.2-0.4
					c-0.1-0.1-0.2-0.2-0.4-0.2c-0.2,0-0.4-0.1-0.7-0.1c-0.1,0-0.1,0-0.1-0.1c0,0,0-0.1,0-0.2s0-0.1,0-0.2s0.1-0.1,0.2-0.1
					c0.4,0,0.7,0,1.1,0.1s0.7,0.1,1,0.1c0.4,0,0.7,0,1.1-0.1s0.7-0.1,1-0.1c0.1,0,0.1,0,0.1,0.1s0,0.1,0,0.2s0,0.1,0,0.2
					c0,0-0.1,0.1-0.1,0.1c-0.3,0-0.5,0.1-0.7,0.1c-0.2,0-0.3,0.1-0.4,0.2c-0.1,0.1-0.2,0.2-0.2,0.4s0,0.4,0,0.7V763.2z"/>
			</g>
			<g>
				<path d="M941.1,752.7c-0.2,1.4-0.3,2.7-0.5,4c-0.2,1.3-0.4,2.6-0.6,4c0,0.3-0.1,0.5-0.1,0.7c0,0.2,0,0.4,0,0.5s0.1,0.3,0.3,0.5
					c0.1,0.2,0.3,0.3,0.5,0.5c0,0,0.1,0.1,0.1,0.1s0,0.1,0,0.2c0,0-0.1,0.1-0.1,0.1c0,0-0.1,0-0.1,0c-0.3-0.2-0.6-0.4-0.9-0.6
					c-0.3-0.2-0.6-0.4-0.8-0.5c-0.3-0.2-0.6-0.3-1-0.5c-0.3-0.2-0.7-0.3-0.9-0.5c-0.1,0-0.1-0.1-0.1-0.1c0-0.1,0-0.1,0-0.2
					c0-0.1,0.1-0.1,0.1-0.1c0.1,0,0.1,0,0.2,0c0.1,0.1,0.2,0.1,0.3,0.2c0.1,0.1,0.2,0.1,0.3,0.1c0.1,0,0.2,0,0.3,0
					c0.1,0,0.2-0.1,0.3-0.2c0.1-0.2,0.3-0.9,0.5-2c0.2-1.1,0.4-2.6,0.7-4.7c0,0,0-0.1-0.1-0.1c0,0-0.1,0-0.1,0
					c-0.8,0.6-1.4,1.2-2,1.6c-0.6,0.5-1.1,0.9-1.5,1.2c-0.4,0.4-0.7,0.7-1,0.9c-0.2,0.2-0.4,0.4-0.5,0.6c-0.1,0.1-0.1,0.3-0.1,0.4
					c0,0.1,0,0.2,0.1,0.3c0,0.1,0.1,0.2,0.2,0.2c0.1,0.1,0.2,0.1,0.4,0.2c0.1,0,0.1,0.1,0.1,0.1c0,0.1,0,0.1,0,0.2
					c0,0.1-0.1,0.1-0.1,0.1c0,0-0.1,0-0.1,0c-0.3-0.2-0.5-0.3-0.7-0.5c-0.2-0.2-0.4-0.3-0.7-0.4c-0.2-0.1-0.4-0.2-0.7-0.3
					c-0.2-0.1-0.5-0.2-0.7-0.4c0,0-0.1-0.1-0.1-0.1c0,0,0-0.1,0-0.1c0-0.1,0.1-0.1,0.1-0.1c0.1,0,0.1,0,0.2,0
					c0.3,0.1,0.5,0.2,0.7,0.2c0.2,0,0.4-0.1,0.6-0.2s0.4-0.2,0.6-0.4c0.2-0.2,0.4-0.3,0.6-0.5c1-0.8,2-1.6,2.9-2.3
					c1-0.8,1.9-1.6,2.9-2.3c0.1,0,0.1-0.1,0.2-0.1c0.1,0,0.1,0,0.2,0C941.1,752.5,941.1,752.6,941.1,752.7z"/>
				<path d="M931.5,755.7c-0.1,0.3-0.3,0.5-0.3,0.7c-0.1,0.2-0.1,0.4-0.1,0.5c0,0.2,0.1,0.3,0.2,0.5c0.1,0.1,0.3,0.3,0.5,0.5
					c0,0,0.1,0.1,0.1,0.1c0,0.1,0,0.1,0,0.2c0,0.1-0.1,0.1-0.1,0.1c0,0-0.1,0-0.1,0c-0.3-0.1-0.5-0.3-0.9-0.5
					c-0.3-0.2-0.6-0.4-0.9-0.6c-0.2-0.1-0.3-0.2-0.5-0.3s-0.3-0.2-0.4-0.2c-0.1-0.1-0.3-0.1-0.4-0.2s-0.3-0.2-0.5-0.3
					c-0.1,0-0.1-0.1-0.1-0.1c0-0.1,0-0.1,0.1-0.1c0,0,0.1-0.1,0.1-0.1c0.1,0,0.1,0,0.1,0c0.3,0.1,0.5,0.2,0.7,0.2c0.2,0,0.3,0,0.5,0
					c0.1-0.1,0.3-0.2,0.4-0.3c0.1-0.2,0.3-0.4,0.4-0.7l2.7-4.8c0.2-0.3,0.3-0.5,0.3-0.6s0.1-0.3,0-0.4c0-0.1-0.1-0.3-0.3-0.4
					c-0.1-0.1-0.3-0.3-0.5-0.4c0,0-0.1-0.1-0.1-0.1c0-0.1,0-0.1,0-0.2s0.1-0.1,0.1-0.1c0.1,0,0.1,0,0.2,0c0.3,0.2,0.6,0.4,0.9,0.6
					s0.6,0.4,0.8,0.6c0.3,0.2,0.6,0.3,1,0.5c0.3,0.2,0.6,0.3,0.9,0.5c0.1,0,0.1,0.1,0.1,0.1c0,0.1,0,0.1,0,0.2s-0.1,0.1-0.1,0.1
					c0,0-0.1,0-0.2,0c-0.3-0.1-0.5-0.2-0.7-0.3s-0.3-0.1-0.5,0c-0.1,0-0.3,0.1-0.4,0.2c-0.1,0.1-0.2,0.3-0.4,0.6L931.5,755.7z"/>
				<path d="M926.9,753c-0.1,0.3-0.3,0.5-0.3,0.7c-0.1,0.2-0.1,0.4-0.1,0.5c0,0.2,0.1,0.3,0.2,0.5c0.1,0.1,0.3,0.3,0.5,0.5
					c0,0,0.1,0.1,0.1,0.1c0,0.1,0,0.1,0,0.2c0,0.1-0.1,0.1-0.1,0.1c0,0-0.1,0-0.1,0c-0.3-0.1-0.5-0.3-0.9-0.5
					c-0.3-0.2-0.6-0.4-0.9-0.6c-0.2-0.1-0.3-0.2-0.5-0.3s-0.3-0.2-0.4-0.2c-0.1-0.1-0.3-0.1-0.4-0.2s-0.3-0.2-0.5-0.3
					c-0.1,0-0.1-0.1-0.1-0.1c0-0.1,0-0.1,0.1-0.1c0,0,0.1-0.1,0.1-0.1c0.1,0,0.1,0,0.1,0c0.3,0.1,0.5,0.2,0.7,0.2c0.2,0,0.3,0,0.5,0
					c0.1-0.1,0.3-0.2,0.4-0.3c0.1-0.2,0.3-0.4,0.4-0.7l2.7-4.8c0.2-0.3,0.3-0.5,0.3-0.6s0.1-0.3,0-0.4c0-0.1-0.1-0.3-0.3-0.4
					c-0.1-0.1-0.3-0.3-0.5-0.4c0,0-0.1-0.1-0.1-0.1c0-0.1,0-0.1,0-0.2s0.1-0.1,0.1-0.1c0.1,0,0.1,0,0.2,0c0.3,0.2,0.6,0.4,0.9,0.6
					s0.6,0.4,0.8,0.6c0.3,0.2,0.6,0.3,1,0.5c0.3,0.2,0.6,0.3,0.9,0.5c0.1,0,0.1,0.1,0.1,0.1c0,0.1,0,0.1,0,0.2s-0.1,0.1-0.1,0.1
					c0,0-0.1,0-0.2,0c-0.3-0.1-0.5-0.2-0.7-0.3s-0.3-0.1-0.5,0c-0.1,0-0.3,0.1-0.4,0.2c-0.1,0.1-0.2,0.3-0.4,0.6L926.9,753z"/>
			</g>
			<g>
				<path d="M921.2,737.9c-0.8,1.1-1.6,2.2-2.4,3.2c-0.8,1.1-1.7,2.1-2.5,3.1c-0.2,0.2-0.3,0.4-0.4,0.5c-0.1,0.2-0.2,0.3-0.2,0.5
					c0,0.2,0,0.3,0,0.5c0,0.2,0.1,0.4,0.2,0.7c0,0.1,0,0.1,0,0.2c0,0-0.1,0.1-0.1,0.1c0,0-0.1,0-0.2,0c-0.1,0-0.1,0-0.1-0.1
					c-0.2-0.3-0.3-0.6-0.5-0.9c-0.1-0.3-0.3-0.6-0.5-0.9c-0.2-0.3-0.4-0.6-0.6-0.9c-0.2-0.3-0.4-0.6-0.6-0.9c0-0.1,0-0.1,0-0.2
					c0-0.1,0.1-0.1,0.1-0.1c0.1,0,0.1,0,0.2,0c0.1,0,0.1,0,0.1,0.1c0.1,0.1,0.1,0.2,0.2,0.3c0.1,0.1,0.1,0.2,0.2,0.3
					c0.1,0.1,0.2,0.1,0.3,0.1c0.1,0,0.2,0,0.3-0.1c0.2-0.1,0.7-0.6,1.4-1.5c0.7-0.8,1.7-2.1,3-3.7c0,0,0-0.1,0-0.1
					c0,0-0.1-0.1-0.1-0.1c-1,0.1-1.8,0.3-2.6,0.4c-0.7,0.1-1.4,0.2-1.9,0.3s-1,0.2-1.3,0.3c-0.3,0.1-0.6,0.2-0.7,0.3
					c-0.1,0.1-0.3,0.2-0.3,0.3c-0.1,0.1-0.1,0.2-0.1,0.3s0,0.2,0.1,0.3c0.1,0.1,0.1,0.2,0.2,0.4c0,0.1,0,0.1,0,0.2
					c0,0.1-0.1,0.1-0.1,0.1c-0.1,0-0.1,0-0.2,0c-0.1,0-0.1,0-0.1-0.1c-0.2-0.3-0.3-0.5-0.4-0.8s-0.2-0.5-0.4-0.7
					c-0.1-0.2-0.3-0.4-0.4-0.6c-0.1-0.2-0.3-0.4-0.4-0.7c0,0,0-0.1,0-0.1c0,0,0.1-0.1,0.1-0.1c0.1,0,0.1,0,0.2,0
					c0.1,0,0.1,0,0.2,0.1c0.2,0.2,0.4,0.4,0.6,0.5c0.2,0.1,0.4,0.2,0.6,0.2c0.2,0,0.4,0,0.7,0c0.2,0,0.5-0.1,0.8-0.1
					c1.2-0.2,2.5-0.4,3.7-0.6c1.2-0.2,2.5-0.4,3.7-0.6c0.1,0,0.1,0,0.2,0c0.1,0,0.1,0.1,0.1,0.1
					C921.3,737.7,921.3,737.8,921.2,737.9z"/>
				<path d="M911.5,735.7c-0.3,0.1-0.5,0.3-0.6,0.4s-0.3,0.3-0.3,0.4c-0.1,0.1-0.1,0.3-0.1,0.5c0,0.2,0.1,0.4,0.2,0.7
					c0,0,0,0.1,0,0.1c0,0.1-0.1,0.1-0.1,0.1c-0.1,0-0.1,0-0.2,0c-0.1,0-0.1,0-0.1-0.1c-0.1-0.3-0.3-0.6-0.5-0.9
					c-0.2-0.3-0.3-0.7-0.5-1c-0.1-0.2-0.2-0.3-0.3-0.5c-0.1-0.1-0.2-0.3-0.3-0.4c-0.1-0.1-0.2-0.3-0.3-0.4c-0.1-0.1-0.2-0.3-0.3-0.5
					c0-0.1,0-0.1,0-0.1c0,0,0.1-0.1,0.1-0.1c0.1,0,0.1,0,0.2,0c0.1,0,0.1,0,0.1,0.1c0.2,0.2,0.3,0.4,0.5,0.5
					c0.1,0.1,0.3,0.2,0.4,0.2s0.3,0,0.5-0.1c0.2-0.1,0.4-0.2,0.7-0.4l4.8-2.7c0.3-0.2,0.5-0.3,0.6-0.4c0.1-0.1,0.2-0.2,0.2-0.4
					c0-0.1,0-0.3,0-0.5c-0.1-0.2-0.1-0.4-0.3-0.6c0-0.1,0-0.1,0-0.2s0.1-0.1,0.1-0.1c0,0,0.1,0,0.2,0c0.1,0,0.1,0,0.1,0.1
					c0.2,0.3,0.3,0.6,0.5,1c0.1,0.3,0.3,0.6,0.5,0.9c0.2,0.3,0.4,0.6,0.6,0.9c0.2,0.3,0.4,0.6,0.6,0.9c0,0.1,0,0.1,0,0.1
					c0,0-0.1,0.1-0.1,0.1s-0.1,0-0.2,0s-0.1,0-0.1-0.1c-0.2-0.2-0.3-0.4-0.4-0.5s-0.3-0.2-0.4-0.3c-0.1,0-0.3,0-0.4,0
					c-0.2,0.1-0.4,0.2-0.6,0.3L911.5,735.7z"/>
				<path d="M908.8,731.1c-0.3,0.1-0.5,0.3-0.6,0.4s-0.3,0.3-0.3,0.4c-0.1,0.1-0.1,0.3-0.1,0.5c0,0.2,0.1,0.4,0.2,0.7
					c0,0,0,0.1,0,0.1c0,0.1-0.1,0.1-0.1,0.1c-0.1,0-0.1,0-0.2,0c-0.1,0-0.1,0-0.1-0.1c-0.1-0.3-0.3-0.6-0.5-0.9
					c-0.2-0.3-0.3-0.7-0.5-1c-0.1-0.2-0.2-0.3-0.3-0.5c-0.1-0.1-0.2-0.3-0.3-0.4c-0.1-0.1-0.2-0.3-0.3-0.4c-0.1-0.1-0.2-0.3-0.3-0.5
					c0-0.1,0-0.1,0-0.1c0,0,0.1-0.1,0.1-0.1c0.1,0,0.1,0,0.2,0c0.1,0,0.1,0,0.1,0.1c0.2,0.2,0.3,0.4,0.5,0.5
					c0.1,0.1,0.3,0.2,0.4,0.2s0.3,0,0.5-0.1c0.2-0.1,0.4-0.2,0.7-0.4l4.8-2.7c0.3-0.2,0.5-0.3,0.6-0.4c0.1-0.1,0.2-0.2,0.2-0.4
					c0-0.1,0-0.3,0-0.5c-0.1-0.2-0.1-0.4-0.3-0.6c0-0.1,0-0.1,0-0.2s0.1-0.1,0.1-0.1c0,0,0.1,0,0.2,0c0.1,0,0.1,0,0.1,0.1
					c0.2,0.3,0.3,0.6,0.5,1c0.1,0.3,0.3,0.6,0.5,0.9c0.2,0.3,0.4,0.6,0.6,0.9c0.2,0.3,0.4,0.6,0.6,0.9c0,0.1,0,0.1,0,0.1
					c0,0-0.1,0.1-0.1,0.1s-0.1,0-0.2,0s-0.1,0-0.1-0.1c-0.2-0.2-0.3-0.4-0.4-0.5s-0.3-0.2-0.4-0.3c-0.1,0-0.3,0-0.4,0
					c-0.2,0.1-0.4,0.2-0.6,0.3L908.8,731.1z"/>
				<path d="M906.2,726.6c-0.3,0.1-0.5,0.3-0.6,0.4s-0.3,0.3-0.3,0.4c-0.1,0.1-0.1,0.3-0.1,0.5c0,0.2,0.1,0.4,0.2,0.7
					c0,0,0,0.1,0,0.1c0,0.1-0.1,0.1-0.1,0.1c-0.1,0-0.1,0-0.2,0c-0.1,0-0.1,0-0.1-0.1c-0.1-0.3-0.3-0.6-0.5-0.9
					c-0.2-0.3-0.3-0.7-0.5-1c-0.1-0.2-0.2-0.3-0.3-0.5c-0.1-0.1-0.2-0.3-0.3-0.4c-0.1-0.1-0.2-0.3-0.3-0.4c-0.1-0.1-0.2-0.3-0.3-0.5
					c0-0.1,0-0.1,0-0.1c0,0,0.1-0.1,0.1-0.1c0.1,0,0.1,0,0.2,0c0.1,0,0.1,0,0.1,0.1c0.2,0.2,0.3,0.4,0.5,0.5
					c0.1,0.1,0.3,0.2,0.4,0.2s0.3,0,0.5-0.1c0.2-0.1,0.4-0.2,0.7-0.4l4.8-2.7c0.3-0.2,0.5-0.3,0.6-0.4c0.1-0.1,0.2-0.2,0.2-0.4
					c0-0.1,0-0.3,0-0.5c-0.1-0.2-0.1-0.4-0.3-0.6c0-0.1,0-0.1,0-0.2s0.1-0.1,0.1-0.1c0,0,0.1,0,0.2,0c0.1,0,0.1,0,0.1,0.1
					c0.2,0.3,0.3,0.6,0.5,1c0.1,0.3,0.3,0.6,0.5,0.9c0.2,0.3,0.4,0.6,0.6,0.9c0.2,0.3,0.4,0.6,0.6,0.9c0,0.1,0,0.1,0,0.1
					c0,0-0.1,0.1-0.1,0.1s-0.1,0-0.2,0s-0.1,0-0.1-0.1c-0.2-0.2-0.3-0.4-0.4-0.5s-0.3-0.2-0.4-0.3c-0.1,0-0.3,0-0.4,0
					c-0.2,0.1-0.4,0.2-0.6,0.3L906.2,726.6z"/>
			</g>
			<g>
				<path d="M901.2,712.7c-0.3,0-0.5,0-0.7,0s-0.4,0.1-0.5,0.2c-0.1,0.1-0.2,0.2-0.3,0.4s-0.1,0.4-0.1,0.7c0,0.1,0,0.1-0.1,0.1
					c-0.1,0-0.1,0-0.2,0c-0.1,0-0.1,0-0.2,0c0,0-0.1-0.1-0.1-0.1c0-0.3,0-0.6,0-1c0-0.4,0-0.7,0-1.1c0-0.2,0-0.4,0-0.6s0-0.3,0-0.5
					c0-0.2,0-0.3,0-0.5s0-0.4,0-0.5c0-0.1,0-0.1,0.1-0.1s0.1,0,0.2,0c0.1,0,0.1,0,0.2,0.1c0.1,0,0.1,0.1,0.1,0.1
					c0,0.3,0.1,0.5,0.1,0.7s0.2,0.3,0.3,0.4c0.1,0.1,0.3,0.2,0.5,0.2s0.5,0,0.8,0h5.5c0.3,0,0.5,0,0.7-0.1s0.3-0.1,0.4-0.2
					c0.1-0.1,0.2-0.2,0.2-0.4s0.1-0.4,0.1-0.7c0-0.1,0-0.1,0.1-0.1c0,0,0.1,0,0.2,0s0.1,0,0.2,0s0.1,0.1,0.1,0.2
					c0,0.4,0,0.7-0.1,1.1s-0.1,0.7-0.1,1c0,0.4,0,0.7,0.1,1.1s0.1,0.7,0.1,1c0,0.1,0,0.1-0.1,0.1s-0.1,0-0.2,0s-0.1,0-0.2,0
					c0,0-0.1-0.1-0.1-0.1c0-0.3-0.1-0.5-0.1-0.7s-0.1-0.3-0.2-0.4c-0.1-0.1-0.2-0.2-0.4-0.2s-0.4,0-0.7,0H901.2z"/>
				<path d="M903.5,703.7c0.6-0.5,1.3-1,1.9-1.4c0.6-0.5,1.3-0.9,1.9-1.4c0.2-0.1,0.3-0.2,0.4-0.3c0.1-0.1,0.2-0.2,0.2-0.3
					c0.1-0.1,0.1-0.2,0.1-0.3c0-0.1,0.1-0.3,0.1-0.5c0-0.1,0-0.1,0.1-0.1c0,0,0.1-0.1,0.2-0.1s0.1,0,0.2,0c0,0,0.1,0.1,0.1,0.1
					c0,0.4,0,0.7-0.1,1c0,0.3-0.1,0.6-0.1,1c0,0.3,0,0.7,0.1,1s0.1,0.7,0.1,1c0,0.1,0,0.1-0.1,0.1s-0.1,0-0.1,0c-0.1,0-0.1,0-0.2,0
					c0,0-0.1-0.1-0.1-0.1c0-0.4-0.1-0.6-0.1-0.7c-0.1-0.1-0.1-0.2-0.2-0.2c-0.1,0-0.2,0.1-0.4,0.2c-0.2,0.1-0.4,0.3-0.7,0.4
					c-0.3,0.2-0.7,0.5-1,0.7s-0.7,0.5-1,0.8c-0.1,0.1-0.1,0.1-0.1,0.2s0.1,0.1,0.1,0.1c0.2,0.1,0.4,0.3,0.7,0.5s0.6,0.4,0.8,0.6
					c0.3,0.2,0.5,0.3,0.8,0.5c0.2,0.1,0.4,0.2,0.5,0.2c0.1,0,0.2,0,0.3-0.1c0.1-0.1,0.1-0.1,0.2-0.2c0-0.1,0.1-0.2,0.1-0.3
					c0-0.1,0-0.2,0.1-0.4c0-0.1,0-0.1,0.1-0.1c0,0,0.1-0.1,0.2-0.1c0.1,0,0.1,0,0.1,0.1c0,0,0.1,0.1,0.1,0.1c0,0.3,0,0.5-0.1,0.8
					c0,0.3-0.1,0.6-0.1,0.9c0,0.3,0,0.5,0.1,0.8c0,0.3,0.1,0.5,0.1,0.8c0,0.1,0,0.1-0.1,0.2s-0.1,0-0.1,0c-0.1,0-0.1,0-0.2,0
					c0,0-0.1-0.1-0.1-0.2c0-0.2-0.1-0.4-0.1-0.6c0-0.2-0.1-0.3-0.2-0.4c-0.1-0.1-0.2-0.2-0.3-0.3c-0.1-0.1-0.3-0.2-0.5-0.3
					c-0.4-0.3-0.9-0.6-1.4-1s-1-0.7-1.4-1.1c0,0-0.1-0.1-0.2-0.1c-0.1,0-0.1,0-0.2,0.1c-0.6,0.5-1.2,0.9-1.8,1.4
					c-0.6,0.4-1.1,0.8-1.7,1.2c-0.1,0.1-0.3,0.2-0.4,0.3c-0.1,0.1-0.2,0.2-0.2,0.3c-0.1,0.1-0.1,0.2-0.2,0.3c0,0.1-0.1,0.3-0.1,0.4
					c0,0.1,0,0.1-0.1,0.1c0,0-0.1,0-0.2,0c-0.1,0-0.1,0-0.2,0s-0.1-0.1-0.1-0.1c0-0.3,0-0.7,0-1c0-0.3,0-0.6,0-0.9c0-0.3,0-0.6,0-1
					s0-0.7,0-1c0,0,0-0.1,0.1-0.1s0.1,0,0.2,0c0.1,0,0.1,0,0.2,0c0,0,0.1,0.1,0.1,0.1c0,0.3,0.1,0.5,0.2,0.7
					c0.1,0.1,0.2,0.2,0.3,0.2c0.1,0,0.2,0,0.3-0.1s0.2-0.1,0.4-0.2c0.3-0.2,0.7-0.4,1-0.7s0.7-0.5,1.1-0.8c0.1-0.1,0.1-0.2,0-0.3
					c-0.1-0.1-0.3-0.2-0.5-0.4s-0.5-0.3-0.8-0.5s-0.5-0.3-0.8-0.5c-0.3-0.1-0.5-0.2-0.6-0.2c-0.1,0-0.2,0-0.3,0.1s-0.1,0.1-0.1,0.2
					c0,0.1-0.1,0.2-0.1,0.3c0,0.1,0,0.2,0,0.3c0,0.1,0,0.1-0.1,0.1c0,0-0.1,0-0.2,0c-0.1,0-0.1,0-0.2-0.1s-0.1-0.1-0.1-0.1
					c0-0.3,0-0.6,0-0.9s0-0.5,0-0.8c0-0.2,0-0.5,0-0.7s0-0.5,0-0.7c0-0.1,0-0.1,0.1-0.1c0.1,0,0.1,0,0.2,0c0.1,0,0.1,0,0.2,0
					s0.1,0.1,0.1,0.1c0,0.1,0,0.2,0,0.3c0,0.1,0,0.2,0,0.2s0,0.1,0.1,0.2c0,0.1,0.1,0.1,0.1,0.2c0.1,0.1,0.3,0.3,0.5,0.5
					s0.4,0.3,0.6,0.4c0.4,0.3,0.7,0.5,1.2,0.9c0.4,0.3,0.8,0.6,1.2,0.9C903.3,703.8,903.4,703.8,903.5,703.7z"/>
			</g>
			<g>
				<path d="M908.8,680.1c0.8-0.1,1.6-0.2,2.4-0.3c0.8-0.1,1.6-0.2,2.3-0.3c0.2,0,0.3,0,0.5-0.1c0.1,0,0.2-0.1,0.3-0.1
					c0.1-0.1,0.2-0.1,0.3-0.2c0.1-0.1,0.2-0.2,0.3-0.4c0,0,0.1-0.1,0.1-0.1c0.1,0,0.1,0,0.2,0s0.1,0.1,0.1,0.1c0,0,0,0.1,0,0.1
					c-0.2,0.3-0.4,0.6-0.5,0.8c-0.2,0.2-0.4,0.5-0.5,0.8c-0.2,0.3-0.3,0.6-0.5,0.9s-0.3,0.6-0.5,0.9c0,0-0.1,0.1-0.1,0.1
					c-0.1,0-0.1,0-0.1,0c-0.1,0-0.1-0.1-0.1-0.1c0,0,0-0.1,0-0.1c0.2-0.3,0.2-0.6,0.3-0.7c0-0.2,0-0.3-0.1-0.3
					c-0.1,0-0.2-0.1-0.5-0.1c-0.2,0-0.5,0-0.8,0c-0.4,0-0.8,0.1-1.2,0.1s-0.8,0.1-1.2,0.2c-0.1,0-0.2,0.1-0.2,0.1c0,0,0,0.1,0,0.2
					c0.1,0.2,0.2,0.5,0.3,0.8s0.3,0.6,0.4,0.9c0.2,0.3,0.3,0.6,0.4,0.8c0.1,0.2,0.3,0.4,0.3,0.4c0.1,0.1,0.2,0.1,0.3,0.1
					c0.1,0,0.2,0,0.3-0.1s0.2-0.1,0.3-0.2c0.1-0.1,0.2-0.2,0.2-0.3c0,0,0.1-0.1,0.1-0.1c0.1,0,0.1,0,0.2,0c0,0,0.1,0.1,0.1,0.1
					c0,0.1,0,0.1,0,0.1c-0.1,0.2-0.3,0.5-0.5,0.7c-0.2,0.2-0.3,0.5-0.5,0.7c-0.1,0.2-0.2,0.5-0.3,0.7c-0.1,0.2-0.2,0.5-0.4,0.8
					c0,0.1-0.1,0.1-0.1,0.1s-0.1,0-0.2,0c-0.1,0-0.1-0.1-0.1-0.1c0-0.1,0-0.1,0-0.2c0.1-0.2,0.2-0.4,0.2-0.6c0-0.2,0.1-0.3,0-0.4
					c0-0.1,0-0.3-0.1-0.4c-0.1-0.1-0.1-0.3-0.2-0.5c-0.2-0.5-0.5-1-0.8-1.6s-0.5-1.1-0.7-1.6c0,0,0-0.1-0.1-0.1
					c-0.1-0.1-0.1-0.1-0.2-0.1c-0.8,0.1-1.5,0.2-2.2,0.3c-0.7,0.1-1.4,0.1-2,0.2c-0.2,0-0.3,0-0.4,0.1c-0.1,0-0.2,0.1-0.3,0.1
					c-0.1,0-0.2,0.1-0.3,0.2s-0.2,0.2-0.3,0.3c0,0-0.1,0.1-0.1,0.1c-0.1,0-0.1,0-0.2,0c-0.1,0-0.1-0.1-0.1-0.1s0-0.1,0-0.1
					c0.2-0.3,0.3-0.6,0.5-0.8c0.2-0.2,0.3-0.5,0.5-0.8c0.2-0.3,0.3-0.6,0.5-0.9c0.1-0.3,0.3-0.6,0.5-0.9c0,0,0.1,0,0.1,0
					c0.1,0,0.1,0,0.2,0c0.1,0,0.1,0.1,0.1,0.1c0,0,0,0.1,0,0.1c-0.1,0.3-0.2,0.5-0.2,0.7c0,0.2,0,0.3,0.2,0.3c0.1,0,0.2,0.1,0.3,0.1
					c0.1,0,0.3,0,0.5,0c0.4,0,0.8,0,1.2-0.1c0.4,0,0.9-0.1,1.3-0.2c0.1,0,0.2-0.1,0.1-0.2c-0.1-0.1-0.1-0.3-0.3-0.6
					s-0.3-0.6-0.4-0.8c-0.1-0.3-0.3-0.5-0.5-0.8c-0.2-0.2-0.3-0.4-0.4-0.5c-0.1-0.1-0.2-0.1-0.3-0.1s-0.2,0-0.2,0.1
					c-0.1,0.1-0.1,0.1-0.2,0.2c-0.1,0.1-0.1,0.2-0.2,0.3c0,0.1-0.1,0.1-0.1,0.1c-0.1,0-0.1,0-0.1-0.1c0,0-0.1-0.1-0.1-0.1
					c0,0,0-0.1,0-0.1c0.2-0.3,0.3-0.5,0.5-0.7s0.3-0.4,0.4-0.7c0.1-0.2,0.2-0.4,0.3-0.6c0.1-0.2,0.2-0.4,0.3-0.7
					c0,0,0.1-0.1,0.1-0.1c0.1,0,0.1,0,0.2,0c0.1,0,0.1,0.1,0.1,0.1c0,0,0,0.1,0,0.1c-0.1,0.1-0.1,0.2-0.1,0.3c0,0.1-0.1,0.1-0.1,0.2
					c0,0.1,0,0.1,0,0.2c0,0.1,0,0.1,0,0.2c0,0.2,0.1,0.4,0.2,0.6c0.1,0.2,0.2,0.5,0.3,0.7c0.2,0.4,0.4,0.8,0.6,1.3
					c0.2,0.5,0.4,0.9,0.6,1.3C908.5,680.1,908.6,680.2,908.8,680.1z"/>
			</g>
			<g>
				<path d="M927.8,657.8c0.7,0.3,1.5,0.6,2.2,0.9c0.7,0.3,1.4,0.6,2.1,0.9c0.2,0.1,0.3,0.1,0.4,0.2c0.1,0,0.2,0.1,0.3,0.1
					c0.1,0,0.2,0,0.3-0.1c0.1,0,0.3-0.1,0.4-0.2c0.1,0,0.1,0,0.2,0c0.1,0,0.1,0.1,0.1,0.1c0,0,0,0.1,0,0.2c0,0.1,0,0.1-0.1,0.1
					c-0.3,0.2-0.6,0.3-0.9,0.5c-0.3,0.1-0.6,0.3-0.9,0.4c-0.3,0.2-0.6,0.4-0.9,0.6c-0.3,0.2-0.6,0.4-0.9,0.6c0,0-0.1,0-0.1,0
					c0,0-0.1-0.1-0.1-0.1c0-0.1,0-0.1,0-0.2s0-0.1,0.1-0.1c0.3-0.2,0.5-0.4,0.6-0.5c0.1-0.1,0.1-0.2,0.1-0.3c0-0.1-0.2-0.2-0.4-0.3
					c-0.2-0.1-0.4-0.2-0.7-0.4c-0.4-0.2-0.7-0.4-1.1-0.5s-0.8-0.3-1.1-0.5c-0.1,0-0.2,0-0.2,0c0,0,0,0.1-0.1,0.1
					c0,0.2-0.1,0.5-0.1,0.8c0,0.3-0.1,0.7-0.1,1c0,0.3,0,0.6,0,0.9c0,0.3,0,0.5,0.1,0.5c0.1,0.1,0.1,0.2,0.2,0.2
					c0.1,0,0.2,0.1,0.3,0c0.1,0,0.2,0,0.3-0.1c0.1,0,0.2-0.1,0.3-0.1c0.1,0,0.1,0,0.2,0c0.1,0,0.1,0.1,0.1,0.1c0,0,0,0.1,0,0.2
					c0,0.1,0,0.1-0.1,0.1c-0.2,0.1-0.5,0.3-0.7,0.4c-0.3,0.1-0.5,0.2-0.8,0.4c-0.2,0.1-0.4,0.3-0.7,0.4c-0.2,0.2-0.4,0.3-0.7,0.5
					c-0.1,0-0.1,0-0.2,0c-0.1,0-0.1-0.1-0.1-0.1c0-0.1,0-0.1,0-0.2s0-0.1,0.1-0.2c0.2-0.1,0.3-0.3,0.5-0.4c0.1-0.1,0.2-0.2,0.3-0.4
					c0.1-0.1,0.1-0.3,0.1-0.4c0-0.2,0-0.3,0-0.6c0-0.5,0.1-1.1,0.1-1.7s0.1-1.2,0.2-1.8c0,0,0-0.1,0-0.2c0-0.1-0.1-0.1-0.2-0.2
					c-0.7-0.3-1.4-0.6-2.1-0.9c-0.7-0.3-1.3-0.6-1.9-0.9c-0.2-0.1-0.3-0.1-0.4-0.2c-0.1,0-0.2-0.1-0.3-0.1c-0.1,0-0.2,0-0.4,0
					c-0.1,0-0.3,0.1-0.4,0.1c-0.1,0-0.1,0-0.1,0c0,0-0.1-0.1-0.1-0.1c0-0.1,0-0.1,0-0.2c0-0.1,0-0.1,0.1-0.1
					c0.3-0.2,0.6-0.3,0.9-0.5c0.3-0.1,0.5-0.3,0.8-0.4c0.3-0.2,0.6-0.3,0.8-0.5c0.3-0.2,0.6-0.4,0.9-0.6c0,0,0.1,0,0.1,0
					c0,0,0.1,0.1,0.1,0.1c0,0,0.1,0.1,0.1,0.1c0,0,0,0.1-0.1,0.1c-0.3,0.2-0.4,0.3-0.5,0.5c-0.1,0.1-0.1,0.3,0,0.4
					c0,0.1,0.1,0.1,0.2,0.2c0.1,0.1,0.2,0.1,0.4,0.2c0.3,0.2,0.7,0.4,1.1,0.5s0.8,0.4,1.2,0.5c0.1,0.1,0.2,0,0.2-0.1
					c0-0.1,0-0.4,0.1-0.7c0-0.3,0-0.6,0.1-0.9s0-0.6,0-0.9c0-0.3-0.1-0.5-0.1-0.6c-0.1-0.1-0.1-0.2-0.2-0.2c-0.1,0-0.2,0-0.2,0
					c-0.1,0-0.2,0-0.3,0.1c-0.1,0-0.2,0.1-0.3,0.1c-0.1,0-0.1,0-0.2,0c0,0-0.1-0.1-0.1-0.1c0-0.1,0-0.1,0-0.2c0-0.1,0-0.1,0.1-0.1
					c0.3-0.2,0.5-0.3,0.8-0.4c0.2-0.1,0.5-0.2,0.7-0.4c0.2-0.1,0.4-0.2,0.6-0.4c0.2-0.1,0.4-0.3,0.6-0.4c0,0,0.1,0,0.1,0
					c0,0,0.1,0.1,0.1,0.1c0,0.1,0,0.1,0,0.2c0,0.1,0,0.1-0.1,0.1c-0.1,0.1-0.2,0.1-0.3,0.2c-0.1,0-0.1,0.1-0.2,0.1
					c0,0-0.1,0.1-0.1,0.1s-0.1,0.1-0.1,0.2c-0.1,0.2-0.1,0.4-0.1,0.7c0,0.3-0.1,0.5-0.1,0.7c0,0.4-0.1,0.9-0.1,1.4
					c-0.1,0.5-0.1,1-0.2,1.5C927.6,657.6,927.6,657.7,927.8,657.8z"/>
				<path d="M931.9,652.7c-0.1-0.3-0.3-0.5-0.4-0.6s-0.3-0.3-0.4-0.3c-0.1-0.1-0.3-0.1-0.5-0.1c-0.2,0-0.4,0.1-0.7,0.2
					c0,0-0.1,0-0.1,0c-0.1,0-0.1-0.1-0.1-0.1c0-0.1,0-0.1,0-0.2c0-0.1,0-0.1,0.1-0.1c0.3-0.1,0.6-0.3,0.9-0.5c0.3-0.2,0.7-0.3,1-0.5
					c0.2-0.1,0.3-0.2,0.5-0.3c0.1-0.1,0.3-0.2,0.4-0.3c0.1-0.1,0.3-0.2,0.4-0.3c0.1-0.1,0.3-0.2,0.5-0.3c0.1,0,0.1,0,0.1,0
					c0,0,0.1,0.1,0.1,0.1c0,0.1,0,0.1,0,0.2c0,0.1,0,0.1-0.1,0.1c-0.2,0.2-0.4,0.3-0.5,0.5s-0.2,0.3-0.2,0.4c0,0.2,0,0.3,0.1,0.5
					c0.1,0.2,0.2,0.4,0.4,0.7l2.7,4.8c0.2,0.3,0.3,0.5,0.4,0.6c0.1,0.1,0.2,0.2,0.4,0.2c0.1,0,0.3,0,0.5,0s0.4-0.1,0.6-0.3
					c0.1,0,0.1,0,0.2,0s0.1,0.1,0.1,0.1s0,0.1,0,0.2c0,0.1,0,0.1-0.1,0.1c-0.3,0.2-0.6,0.3-1,0.5s-0.6,0.3-0.9,0.5
					c-0.3,0.2-0.6,0.4-0.9,0.6c-0.3,0.2-0.6,0.4-0.9,0.6c-0.1,0-0.1,0-0.1,0c0,0-0.1-0.1-0.1-0.1c0,0,0-0.1,0-0.2
					c0-0.1,0-0.1,0.1-0.1c0.2-0.2,0.4-0.3,0.5-0.4s0.2-0.3,0.3-0.4c0-0.1,0-0.3,0-0.4c-0.1-0.2-0.2-0.4-0.3-0.6L931.9,652.7z"/>
			</g>
		</g>
		<path stroke="#000000" stroke-width="9.375000e-002" d="M988.8,690.2c-1.5,1.3-2.9,2.8-4,4.4c-5,1.7-10,3.3-15,4.8
			c0.3-1.2,0.7-2.5,1-3.7c1.4-1.3,2.7-2.8,3.9-4.3c-3.7-1-7.4-1.7-11.2-2.3c1,3.2,2.3,6.4,1.2,9.8c-3.4,4.3-9.1,4.8-13.9,6.6
			c-9.8,3.1-19.6,6.3-29.4,9.4c-0.8,0.3-1.6,0.5-2.3,0.8c-5,1.7-10.1,3.3-15.1,4.9c0,0,0,0,0,0c-0.1,0.1-0.2,0.1-0.3,0.1
			c0,0,0,0,0,0c0,0,0,0,0,0.1c-1.7,0.5-3.3,1.1-5,1.6c0-0.7-0.2-2.1-0.2-2.8c-3.7,1.2-7.1,3.4-9.3,6.6c-0.5,0.9-0.9,1.8-1.3,2.7
			c0.6,0.2,1.9,0.7,2.6,0.9c3.5,1.4,7.4,1,11.1,0.3c-0.3-1-0.6-2-1-2.9c1.6-0.5,3.2-1,4.8-1.4c0,0,0,0,0,0c0.1-0.1,0.2-0.1,0.3-0.1
			c0,0,0,0,0,0c3.9-1.3,7.9-2.5,11.8-3.9c1.4-0.5,2.7-0.9,4.1-1.4c13.9-4.3,27.6-8.8,41.4-13.2c-2.1,10.1-4.2,20.2-6.3,30.2
			c-0.7-0.2-2.1-0.5-2.8-0.7c-0.7,4.7,0.1,9.5,2.9,13.4c4-2.7,6.7-6.7,7.8-11.4c-0.7,0-2.1-0.1-2.8-0.1c2.1-10,4.1-20.1,6.3-30.1
			c1.1-1.3,2.2-2.6,3.2-4c5.1-1.7,10.1-3.3,15.2-4.8c1.9,0.6,3.9,1,5.9,1.3C991.4,697.3,990.2,693.7,988.8,690.2z"/>
	</g>
</g>
</svg>
