<?xml version="1.0" encoding="UTF-8" standalone="no"?>
<!-- Creator: CorelDRAW -->

<svg
   xml:space="preserve"
   width="210mm"
   height="297mm"
   version="1.1"
   style="shape-rendering:geometricPrecision; text-rendering:geometricPrecision; image-rendering:optimizeQuality; fill-rule:evenodd; clip-rule:evenodd"
   viewBox="0 0 21000 29700"
   id="svg789"
   sodipodi:docname="map-Britain-1.svg"
   inkscape:version="1.1.1 (3bf5ae0d25, 2021-09-20)"
   xmlns:inkscape="http://www.inkscape.org/namespaces/inkscape"
   xmlns:sodipodi="http://sodipodi.sourceforge.net/DTD/sodipodi-0.dtd"
   xmlns:xlink="http://www.w3.org/1999/xlink"
   xmlns="http://www.w3.org/2000/svg"
   xmlns:svg="http://www.w3.org/2000/svg"><sodipodi:namedview
   id="namedview791"
   pagecolor="#ffffff"
   bordercolor="#999999"
   borderopacity="1"
   inkscape:pageshadow="0"
   inkscape:pageopacity="0"
   inkscape:pagecheckerboard="0"
   inkscape:document-units="mm"
   showgrid="false"
   inkscape:zoom="14.29181"
   inkscape:cx="568.57738"
   inkscape:cy="700.01629"
   inkscape:window-width="3840"
   inkscape:window-height="2075"
   inkscape:window-x="0"
   inkscape:window-y="44"
   inkscape:window-maximized="1"
   inkscape:current-layer="Plan_x0020_1" />
 <defs
   id="defs4">
  <style
   type="text/css"
   id="style2">
   <![CDATA[
    .str4 {stroke:black;stroke-width:10;stroke-opacity:0.501961}
    .str0 {stroke:#2B2A29;stroke-width:75}
    .str6 {stroke:black;stroke-width:50}
    .str3 {stroke:#003399;stroke-width:20}
    .str8 {stroke:#434242;stroke-width:10}
    .str1 {stroke:black;stroke-width:10}
    .str5 {stroke:black;stroke-width:10}
    .str2 {stroke:#003399;stroke-width:10}
    .str9 {stroke:#2B2A29;stroke-width:7.62}
    .str7 {stroke:black;stroke-width:7.62}
    .fil5 {fill:none}
    .fil0 {fill:#FEFEFE}
    .fil3 {fill:#D9DADA}
    .fil15 {fill:#D9DADA}
    .fil1 {fill:#2B2A29}
    .fil2 {fill:#A2D9F7}
    .fil4 {fill:#E5E5E5}
    .fil13 {fill:#FEFEFE;fill-rule:nonzero}
    .fil12 {fill:#D9DADA;fill-rule:nonzero}
    .fil8 {fill:#727271;fill-rule:nonzero}
    .fil14 {fill:#434242;fill-rule:nonzero}
    .fil9 {fill:#2B2A29;fill-rule:nonzero}
    .fil11 {fill:black;fill-rule:nonzero}
    .fil7 {fill:#4C4C4C;fill-rule:nonzero}
    .fil10 {fill:#FEFEFE;fill-rule:nonzero;fill-opacity:0.501961}
    .fil6 {fill:#FEFEFE;fill-opacity:0.701961}
   ]]>
  </style>
 </defs>
<symbol
   id="Capitale"
   viewBox="10372 14722 256 256">
 <circle
   class="fil0 str0"
   cx="10500"
   cy="14850"
   r="91"
   id="circle6" />
</symbol>
<symbol
   id="villes"
   viewBox="10447 14797 105 105">
 <circle
   class="fil1"
   cx="10500"
   cy="14850"
   r="53"
   id="circle9" />
</symbol>
 <g
   id="Plan_x0020_1"
   inkscape:label="Plan 1">
  <metadata
   id="CorelCorpID_0Corel-Layer" />
  <rect
   class="fil2"
   x="1000"
   y="1000"
   width="18989"
   height="23454"
   id="rect13"
   style="fill:#073c59;fill-opacity:1" />
  
  <path
   class="fil3 str1"
   d="m 19989,24454 c -1209.029,-1111.51 -526.989,-877.784 -1383,-1386 10,-19 -43,-74 -48,-104 -18,-97 -80,-24 -129,-70 -48,-46 -25,-176 -13,-233 23,-60 16,-120 46,-179 17,0 21,33 52,20 15,-6 60,-10 64,-26 -28,-4 -68,-6 -75,-39 -11,-54 -51,-41 -51,-93 0,-61 33,-118 33,-183 25,-65 2,-151 12,-219 2,-16 12,-78 23,-87 5,-4 54,30 63,30 -25,-32 -26,-73 -47,-101 -34,-45 -44,-75 -44,-133 0,-82 10,-156 -3,-239 -15,-96 -48,-151 10,-245 129,-160 53,-306 10,-480 l 2,-66 c 2,-2 3,-5 5,-7 118,0 165,-27 238,-122 69,-90 153,-196 277,-205 84,29 237,-80 319,-99 l 403,-93 c 25,5 65,-19 89,-26 28,-9 51,62 67,47 12,-11 7,-38 15,-53 7,-12 19,-34 32,-38 l 35,-15 v 4447 z"
   id="path17"
   sodipodi:nodetypes="cccccccccscccccscccccccccccccccc" />
  
  
  
  <path
   class="fil0 str1"
   d="m 17761.228,16657.541 c -20,20 -23,81 -58,68 -12,-5 -56,10 -59,23 -5,18 22,23 2,35 -12,7 -71,38 -46,50 14,7 89,27 92,32 19,32 26,7 50,7 16,0 43,18 43,-16 0,-9 -11,-70 1,-65 7,3 37,47 40,57 23,61 -102,151 -136,191 -34,40 -80,81 -134,91 l -111,73 c -30,19 -67,9 -101,9 -81,0 -97,24 -129,-58 -10,-25 -61,-59 -9,-59 10,0 44,-11 38,-11 l -61,-1 c -61,-1 -74,-91 -85,-136 -9,26 -31,56 -57,66 -36,15 25,33 35,44 11,12 -24,17 -23,24 0,1 20,7 23,7 24,6 46,18 70,19 48,2 -34,53 -40,58 -85,45 -169,106 -199,-16 -29,7 -42,56 -29,76 19,30 -50,-1 -59,7 9,9 52,39 49,44 -13,20 -27,39 -50,49 -53,23 -128,25 -185,18 -42,-5 -66,33 -104,37 -17,2 -30,-11 -46,0 -51,35 10,57 48,65 69,14 79,46 140,-5 42,-35 68,-13 112,-12 45,1 91,-55 117,-87 36,-46 115,-24 117,32 l 4,148 c 12,63 2,178 -40,229 -32,39 -142,41 -190,41 0,10 32,23 38,35 7,12 14,-6 25,-12 37,-18 82,-5 123,-10 26,-3 60,-15 84,-15 -5,27 -61,70 -78,94 -29,43 -61,96 -116,107 -48,43 -98,64 -149,99 -42,29 -54,105 -117,73 -59,-29 -229,-72 -288,-44 -40,19 -56,0 -86,6 0,21 61,53 28,73 -35,15 -82,24 -120,21 -33,-3 -58,-17 -92,-7 -48,14 -153,1 -181,34 -42,51 -4,93 -23,137 -20,48 -94,39 -137,43 -95,10 -96,-12 -154,-71 -36,-13 -49,28 -74,38 -23,10 -52,-16 -68,-30 -31,-28 -96,-70 -138,-70 -46,0 -41,-35 -61,-59 -11,-13 -109,-43 -126,-43 3,12 42,28 53,34 61,36 39,17 71,76 23,44 68,22 106,24 54,3 138,175 207,82 21,-28 14,-23 32,2 22,29 153,102 178,60 64,7 142,-24 148,-94 7,-82 79,-64 139,-64 77,0 449,1 467,94 12,72 12,101 -72,101 -62,0 -30,-81 -99,-43 -24,13 -59,54 -70,79 -11,25 -108,59 -137,63 -57,9 104,71 121,77 45,17 89,-39 111,-23 13,16 79,93 79,21 0,-58 30,7 48,7 24,0 8,-32 5,-42 -3,-11 -40,-80 -23,-82 35,-3 42,30 46,56 7,46 89,45 89,86 0,23 -12,61 16,72 28,11 71,-2 102,2 l 143,19 c 25,3 40,29 65,34 24,4 54,4 78,0 60,-3 142,6 196,-16 l 40,-52 c 21,-13 84,-8 111,-11 l 147,-16 226,-21 c 2,-1 6,-2 7,-3 57,0 110,-12 168,-11 50,1 109,-12 156,-29 77,-27 176,-30 163,80 -8,66 -21,86 -57,140 -26,38 -145,6 -145,40 5,2 24,30 27,36 0,95 40,165 61,251 17,68 19,135 14,205 0,97 -18,146 -105,193 -61,33 -118,67 -173,107 -54,39 -83,23 -141,37 -44,21 -82,91 -125,96 -57,7 -113,1 -170,15 -130,32 -204,146 -295,230 -46,86 -26,239 7,328 26,71 -210,-1 -238,-9 -78,-20 -151,-28 -232,-28 -70,18 -110,56 -161,103 -36,34 -70,96 -114,116 -95,44 -208,72 -311,83 l -257,69 c -80,21 -165,64 -204,140 -25,47 -45,32 -72,66 l -46,57 c -42,52 -30,89 -103,94 -34,-8 -65,0 -95,-22 l -67,-49 c -46,-33 -76,-3 -130,-37 l -95,-59 c -39,-24 -75,2 -120,-14 l -188,-68 c -118,-46 -259,-95 -387,-101 -140,-7 -245,71 -373,82 l -185,18 -186,7 -315,62 c -73,22 -137,36 -187,100 -15,20 -74,123 -92,124 -1024.333,-3932.583 2811.518,-6338.528 4823,-4507 z m -998,1876 c -44,20 -82,-56 -128,-47 -24,5 -99,-29 -99,-24 0,34 11,81 -9,112 -19,29 4,58 27,78 24,21 36,30 43,62 9,46 17,35 61,34 66,-2 124,17 189,19 21,1 42,12 63,18 21,6 81,-23 100,-36 22,-15 -73,-96 -83,-135 -22,-86 -92,-53 -154,-74 l -11,-6 z"
   id="path25"
   style="fill:#123901;fill-opacity:1"
   sodipodi:nodetypes="ccccccssccsccscscscccccsccccccccccccccccccccccccccccccccccccscccccccccscscscccsscccsscccccccccccccccccccccccccccccccccccccccccccccccccccscccccsccccc" />
  
  <g
   id="_2705565956816"
   style="stroke:#073d5a;stroke-opacity:1">
   
   
   
   
   
   
   <path
   class="fil5 str3"
   d="m 13791,18713 c 39,-32 29,-129 95,-146 84,-22 80,78 147,81 41,2 53,-53 47,-85 -7,-40 -65,-30 -71,-68 -6,-47 71,-45 63,-62 -10,-20 -34,-23 -38,-54 -2,-14 53,-65 69,-72 37,-15 34,34 48,54 36,52 83,-160 102,-44 7,39 35,97 85,69 36,-20 15,-72 66,-76 62,-5 92,18 95,-66 3,-74 83,-35 117,-12 31,21 33,5 57,-10 44,-27 35,61 56,85 16,19 29,13 43,-4 13,-16 -22,-90 35,-77 43,9 67,80 128,52 46,-22 42,-85 104,-96 12,-2 24,4 36,5"
   id="path41"
   sodipodi:nodetypes="ccccccccccccccccccccc"
   style="stroke:#073d5a;stroke-opacity:1" />
   
   
   <path
   class="fil5 str3"
   d="M6570 2766c-107,-232 179,-272 207,-468 19,-135 -4,-319 165,-319 80,0 114,-126 216,-154 145,-39 275,-65 360,76 36,59 110,-15 168,-15 84,0 149,31 219,59 77,31 113,-88 201,-65 60,16 71,82 157,82 78,0 213,60 272,28 71,-38 141,-165 246,-112 28,14 340,10 377,-5 32,-13 119,-32 141,-49 44,-33 103,9 142,-10 75,-35 142,-133 185,-202 16,-25 46,-41 36,-76 -21,-78 84,2 66,-82 -13,-57 54,-20 68,-43 22,-34 83,-99 83,-132 0,-78 31,-101 94,-144 9,-6 20,-10 31,-15"
   id="path47"
   style="stroke:#073d5a;stroke-opacity:1" />
   
   
   
  </g>
  
  
  
  
  
  
  
  
  
  
  
  
  
  
  
  
  
  
  
  <use
   x="14359"
   y="18087"
   width="256"
   height="256"
   xlink:href="#Capitale"
   id="use94" />
  
  
  
  
  
  
  
  
  
  
  
  
  
  
  
  
  
  
  
  
  
  
  
  
  
  
  
  
  
  
  
  
  
  
  
  
  
  
  
  
  
  
  
  
  
  
  
  
  
  
  
  
  
  
  
  
  
  
  
  
  
  
  
  
  
  
  
  
  
  
  
  
  
  
  
  
  
  
  
  
  
  
  
  
  
  
  
  
  
  
  
  
  
  
  
  
  
  
  
  
  
  
  
  
  
  
  
  
  
  
  
  
  
  
  
  
  
  
  
  
  
  
  
  
  
  
  
  
  
  
  
  
  
  
  
  
  
  
  
  
  
  
  
  
  
  
  
  
  
  
  
  
  
  
  
  
  
  
  
  
  
  
  
  
  
  
  
  
  
  
  
  
  
  
  
  
  
  
  
  
  
  
  
  
  
  
  
  
  
  
  
  
  
  
  
  
  
  
  
  
  
  
  
  
  
  
  
  
  
  
  
  
  
  
  
  
  
  
  
  
  
  
  
  
  
  
  
  
  
  
  
  
  
  
  
  
  
  
  
  
  
  
  
  
  
  
  
  
  
  
  
  
  
  
  
  
  
  
  
  
  
  
  
  
  
  
  
  
  
  
  
  
  
  
  
  
  
  
  
  
  
  
  
  
  
  
  
  
  
  
  
  
  
  
  
  
  
  
  
  
  
  
  
  
  
  
  
  
  
  
  
  
  
  
  
  
  
  
  <rect
   class="fil5 str6"
   x="1000"
   y="1000"
   width="18989"
   height="23454"
   id="rect740" />
  
  
 </g>
</svg>
