<?xml version="1.0" encoding="utf-8"?>
<!-- Generator: Adobe Illustrator 16.0.0, SVG Export Plug-In . SVG Version: 6.00 Build 0)  -->
<!DOCTYPE svg PUBLIC "-//W3C//DTD SVG 1.1//EN" "http://www.w3.org/Graphics/SVG/1.1/DTD/svg11.dtd">
<svg version="1.1" id="Camada_1" xmlns="http://www.w3.org/2000/svg" xmlns:xlink="http://www.w3.org/1999/xlink" x="0px" y="0px"
	 width="477px" height="370px" viewBox="68 135 477 370" enable-background="new 68 135 477 370" xml:space="preserve">
<title>Wind power</title>
<g>
	<path d="M466.07,330.053H84.413c-5.827,0-10.552-4.725-10.552-10.553c0-5.827,4.725-10.553,10.552-10.553H466.07
		c5.827,0,10.552,4.726,10.552,10.553C476.62,325.328,471.897,330.053,466.07,330.053z"/>
	<path d="M301.885,284.891H107.838c-5.827,0-10.551-4.726-10.551-10.553c0-5.826,4.724-10.552,10.551-10.552h194.047
		c5.827,0,10.552,4.726,10.552,10.552C312.437,280.165,307.712,284.891,301.885,284.891z"/>
	<path d="M334.699,375.213H107.838c-5.827,0-10.551-4.725-10.551-10.551c0-5.828,4.724-10.553,10.551-10.553h226.861
		c5.827,0,10.553,4.725,10.553,10.553C345.252,370.488,340.528,375.213,334.699,375.213L334.699,375.213z"/>
	<path d="M466.07,330.053c-5.828,0-10.552-4.725-10.552-10.553c0-5.827,4.724-10.553,10.552-10.553
		c28.146,0,50.965-22.816,50.965-50.965c0-28.146-22.817-50.965-50.965-50.965c-28.146,0-50.965,22.818-50.965,50.965
		c0,5.828-4.725,10.553-10.552,10.553c-5.828,0-10.552-4.725-10.552-10.553c0-39.801,32.266-72.067,72.067-72.067
		s72.068,32.267,72.068,72.067C538.138,297.786,505.87,330.053,466.07,330.053z"/>
	<path d="M301.885,284.891c-5.828,0-10.552-4.726-10.552-10.553c0-5.826,4.724-10.552,10.552-10.552
		c28.146,0,50.965-22.817,50.965-50.966c0-28.147-22.818-50.964-50.965-50.964c-28.147,0-50.965,22.817-50.965,50.964l0,0
		c0,5.828-4.726,10.553-10.552,10.553c-5.828,0-10.553-4.725-10.553-10.553c0-39.801,32.267-72.067,72.068-72.067
		s72.067,32.267,72.067,72.067C373.952,252.625,341.687,284.891,301.885,284.891L301.885,284.891z"/>
	<path d="M334.699,498.246c-39.777-0.059-72.01-32.289-72.067-72.066c0-5.828,4.725-10.553,10.552-10.553
		c5.828,0,10.552,4.725,10.552,10.553c0,28.145,22.817,50.965,50.965,50.965c28.148,0,50.966-22.818,50.966-50.965
		c0-28.147-22.817-50.967-50.966-50.967c-5.827,0-10.552-4.725-10.552-10.551c0-5.828,4.725-10.553,10.552-10.553
		c39.831,0,72.121,32.289,72.121,72.121s-32.29,72.121-72.121,72.121l0,0L334.699,498.246L334.699,498.246z"/>
</g>
</svg>
